<?xml version="1.0" encoding="utf-8"?>
<!-- Generator: Adobe Illustrator 19.1.0, SVG Export Plug-In . SVG Version: 6.00 Build 0)  -->
<svg version="1.1" xmlns="http://www.w3.org/2000/svg" xmlns:xlink="http://www.w3.org/1999/xlink" x="0px" y="0px"
	 viewBox="0 0 120.5 120.5" style="enable-background:new 0 0 120.5 120.5;" xml:space="preserve">
<style type="text/css">
	.st0{fill:#1A1A1A;}
	.st1{fill:#098AC5;}
	.st2{fill:#5E5F5E;}
	.st3{opacity:0.5;fill:#098AC5;}
	.st4{fill:#13181A;}
	.st5{opacity:0.5;fill:none;stroke:#929497;stroke-width:2;stroke-miterlimit:10;}
	.st6{fill:none;stroke:#929497;stroke-width:2.4167;stroke-miterlimit:10;}
	.st7{fill:#929497;}
	.st8{fill:none;stroke:#929497;stroke-miterlimit:10;}
	.st9{opacity:0.5;fill:#929497;}
	.st10{fill:#FFFFFF;}
	.st11{fill:#A7CE38;}
	.st12{fill:#BBBCBE;}
	.st13{clip-path:url(#SVGID_2_);fill:#323A44;stroke:#D0D1D2;stroke-linejoin:round;stroke-miterlimit:10;}
	.st14{fill:#098AC5;stroke:#0E6F9F;stroke-miterlimit:10;}
	.st15{opacity:0.9;fill:#FFFFFF;stroke:#919396;stroke-width:0.4556;stroke-miterlimit:10;}
	.st16{fill:#098AC5;stroke:#0E6F9F;stroke-width:0.4805;stroke-miterlimit:10;}
	.st17{clip-path:url(#SVGID_4_);}
	.st18{fill:none;}
	.st19{fill:url(#SVGID_7_);}
	.st20{fill:url(#SVGID_8_);}
	.st21{opacity:0.5;}
	.st22{fill:#3FA9F5;}
	.st23{fill:url(#Tachometer_overlay_1_);}
</style>
<g id="Layer_1">
	<g>
		<defs>
			<rect id="SVGID_1_" x="-493.2" y="-44.3" width="363" height="208"/>
		</defs>
		<clipPath id="SVGID_2_">
			<use xlink:href="#SVGID_1_"  style="overflow:visible;"/>
		</clipPath>
		<path class="st13" d="M-307.7,266.6V31.2l6.3-6.2l4.4-1.5l7.9,1.9l226.1,98.1l-174,166.7l-52.5-20.7L-307.7,266.6z M-304.6,19.2
			l6.9-2.6l12.2,2.8l85,38.2l4.8-12.2l-8.7-4.6l-91.3-39.4l-10.4-5.6l-2.3-2.5l1,29.3L-304.6,19.2z M-194.3,59.7l120.6,52.1
			l6.4-11.4l-108.1-48.3L-189,48L-194.3,59.7z M-315.7,348.7V166.2l-10.3-8.7l-6.1-2.1l-7.3-0.4l-9,2.5l-8.6,6.1l-5.7,5.3l3.1,179.8
			l11.8,10l5.6,2l3.6,0.8l5.4-0.4l5.4-2l4.6-3.4L-315.7,348.7z M-362.7,159.7l11.4-8.4l12.2-3.3l8.7,0.8l8.2,3.3l6.5,6v-43.6
			l-10.6,10.4l-10.3,3.4h-3.8l-8.8-1.6l-7.8-5.4l-5.7-5V159.7z M-315.6,104.7l-3.7-169.3l-5.3-5l-7.3-4.8l-8.1-1l-10.7,1.3
			L-363-64.1l1.3,172l8.7,8l7,4.5l6.7,0.8l8.9-2.4L-315.6,104.7z M-368.5,319.9l-2.7-204.7l1.3-6.2l-1.6-68.8h-96.2l-6.2-4.1
			l-0.8-6.1l2.4-5.2l4.2-3l6.9-1.3l89.5-1.2l0.3-85.8l-0.8-5.3l-0.3-92.1l1-13.1l3.4-9.2l0.5-0.4l-1-1.7l-9.8,1.4l-25.7-0.4
			l-27.1,25.6l-3.6,50.6l-5.3,24.8l-18.1,45.1L-502.2,49l-7.5,24.3l-3.2,19.8l2.3,229.2h21.4l0.6-3l5.6-5.6l6.1-1.3l74.4,0.2
			l14.8,1.9l3.8,3.6l2.7,4l5.7-2.3L-368.5,319.9z M-371.7,34.2v-8.1l-87.2,0.8l-6.1,0.9l-2.2,1.6l-0.6,1.4v2l1.6,1.4H-371.7z
			 M-363.5-72.4l10.4-8l11.1-1.4h2.2l10.1,1l12,8.4v-90.3l-2.9-9.7l-1.4-1.7l-4,2.5l-9.6,2.7h-8.4l-6.9-1.4l-5.9-3.2l-5.7-5.5
			l-0.6,2.9l-1.3,14.6L-363.5-72.4z M-308.4-16.8l7.4,8l11.1,6l97.3,42l10.6-23l5-18.6l3.8-25.8l1.5-61.5l-2.9-89.9h-39.7l-75.4-8.9
			l-5.6,2.2l-9.3,1.7l-7.1-0.8l-2.4,4.3l-1.8,1.6l2.3,3.4l4.1,11.7v92.8l-1.4,5.8L-308.4-16.8z M-171.3,46.5l108.4,48l1.7-3.3
			l23.9-18.1l16.3-15L6.6,34l5.2-7.5L26.3,2l10.8-15.3l16-17.9l67.6-62.5l6.4-8l-14.9-22l-46.9-15.9l0.1-1.8l0.3-2.3l3.2-1.3
			l40.1,13.2l-7.1-19.5l-259.9-272.9l-131.3,127.7l118.9,1.1l2.4,108.5h43.9l-0.1-93.9l0.9-1.9l2.5-1.1l2.4,1l0.9,2.5l0.4,93.8
			l76.7,9.7l22.8,5.5l24.4,8L48.9-150l1.9,2.3l-0.6,2.5l-1.5,1.1l-1.8,0.1L1.7-157.8l-20.4-6.5l-22-5.6l-40.2-5.8l-39.6-4.1h-47.5
			l2,80.2l2.9,3.6l4.1,1.4l64.1-1.4l4.2,1.6l4.8,5v6.8l-4.2,6.9l-5.3,3.8l-71.5,2.5v41.2l-4,27l-4.8,18.3l-10.9,24.2L-171.3,46.5z
			 M-165.7-76.1l68.5-2.4l2.6-2.3l2-4.3l-0.4-2l-1.6-1.8l-4.3-0.9l-62,1.8l-4.8-1.8V-76.1z M-46.2,108.6l-14.8-5.9l-6.2,11.3
			l10.6,4.5L-46.2,108.6z M68.6-0.2l-27-8L31,6.9L10.6,39.1l-29.7,25.7l-3.5,3.7l-34.1,27.6v1.4l15.2,6.1L68.6-0.2z M-242.5,295.3
			l-47.8-19.3l-17.4-2.7v75.8l1.1,7.1L-242.5,295.3z M-775.9,165.9l82.4,86.8l131.9-154.4l5.9-6.6l8.9-5.4l7.6-3.1h9.2l10.4,3.1
			l2.8-16.5l7.1-23.9l43.5-88.5l22.9-67.4l1.3-22.9l-2.5-15.8L-775.9,165.9z M-387.8,325.3l-2.7-4.5l-12.4-1.6h-72.8h-3.2l-3.3,3
			l-1,2.2l3.1,4.4l6.6,2l4.8,0.5l66,1.1l8-2.2L-387.8,325.3z M-518.1,438l-2.8-343.5l-4.8-3.5l-5.8-1.7h-6.2l-7.3,2.7l-7.2,5.4
			l-137.4,160.1L-518.1,438z M-339.3-222.7c-12.8,0-23.2,10.4-23.2,23.2s10.4,23.2,23.2,23.2c12.8,0,23.2-10.4,23.2-23.2
			S-326.5-222.7-339.3-222.7z M-304.5-191.3l6.4-1.5l-5.9-3.5l-4.4-0.4l-1,4.5L-304.5-191.3z M-362.4-227.3l0.4,6.4l5.7-4.7l9.8-4.3
			l6-0.6l6.3,0.6l6.5,1.7l7,4l0.8-43.3L-362.4-227.3z M-397.8-194l19,0.4l8.1-1.3v-7.8l-9.4-2.1h-6.3L-397.8-194z M-379-211.4
			l10.1,2.1l1.3-3l-1.9-3.9l-0.5-3.9L-379-211.4z M-311.2-289.9l-1.5,74.7l2.6,5.2l1.7,6.9l6.6,0.7l12.4,7l75.1,8.7h39.2l-2-102.4
			L-311.2-289.9z M153.5-88.2l-14.2-3.9l-6.6-5.3l-6.4,7.6L45.9-13.9l23.4,5.8L153.5-88.2z M-313.8,363.3l-1.1-7.1l-5.5,5.3l-5,4
			l-8.5,2.7h-3.8h-1.9l-9.3-2l-11.3-9l-0.6,1.2l0.8,48.3L-313.8,363.3z M-367.6,414.6l-1.6-56l1.6-9.4v-22.4l-6.4-0.5l-8.3,3.7
			l-10.4,6.7l-9.4,2.2l-65.4-1.1l-8.9-0.9l-7.4-2.2l-4.8-6.1l-11.2-0.4l-10.3,0.4l0.8,118.7l50.6,52.2L-367.6,414.6z"/>
	</g>
</g>
<g id="Layer_2">
</g>
<g id="Tachometer">
	<radialGradient id="Tachometer_overlay_1_" cx="60.2362" cy="60.2362" r="60.1533" gradientUnits="userSpaceOnUse">
		<stop  offset="0.7802" style="stop-color:#13181A"/>
		<stop  offset="0.8275" style="stop-color:#13181A"/>
		<stop  offset="0.95" style="stop-color:#13181A"/>
		<stop  offset="1" style="stop-color:#13181A;stop-opacity:0"/>
	</radialGradient>
	<path id="Tachometer_overlay" class="st23" d="M60.2,0.1C27,0.1,0.1,27,0.1,60.2c0,33.2,26.9,60.2,60.2,60.2
		c33.2,0,60.2-26.9,60.2-60.2C120.4,27,93.5,0.1,60.2,0.1z M114.3,56.2c0,0.2-0.1,0.3-0.3,0.3l-3.6,0.2c0,0,0,0,0,0
		c-0.2,0-0.3-0.1-0.3-0.2c0-0.2,0.1-0.3,0.3-0.3l3.6-0.3C114.2,55.9,114.3,56,114.3,56.2z M114.1,54c0,0.2-0.1,0.3-0.3,0.4l-3.6,0.4
		c0,0,0,0,0,0c-0.2,0-0.3-0.1-0.3-0.3c0-0.2,0.1-0.3,0.3-0.4l3.6-0.4C114,53.7,114.1,53.9,114.1,54z M109.6,52.6
		c0-0.2,0.1-0.4,0.3-0.4l3.6-0.6c0.2,0,0.3,0.1,0.4,0.3c0,0.2-0.1,0.4-0.3,0.4l-3.6,0.6c0,0,0,0-0.1,0
		C109.8,52.8,109.7,52.7,109.6,52.6z M113.9,49.6c0.1,0.3-0.1,0.6-0.4,0.6l-5.7,1.1c0,0-0.1,0-0.1,0c-0.2,0-0.5-0.2-0.5-0.4
		c-0.1-0.3,0.1-0.6,0.4-0.6l5.7-1.1C113.6,49.2,113.9,49.4,113.9,49.6z M113,47.6c0,0.2-0.1,0.4-0.2,0.4l-3.5,0.8c0,0-0.1,0-0.1,0
		c-0.1,0-0.3-0.1-0.3-0.3c0-0.2,0.1-0.4,0.2-0.4l3.5-0.8C112.8,47.3,113,47.4,113,47.6z M112.5,45.5c0,0.2-0.1,0.4-0.2,0.4l-3.5,1
		c0,0-0.1,0-0.1,0c-0.1,0-0.3-0.1-0.3-0.2c0-0.2,0.1-0.4,0.2-0.4l3.5-1C112.2,45.2,112.4,45.3,112.5,45.5z M111.9,43.4
		c0.1,0.2,0,0.4-0.2,0.4l-3.4,1.1c0,0-0.1,0-0.1,0c-0.1,0-0.3-0.1-0.3-0.2c-0.1-0.2,0-0.4,0.2-0.4l3.4-1.1
		C111.6,43.1,111.8,43.2,111.9,43.4z M111.2,41.3c0.1,0.2,0,0.4-0.2,0.4l-3.4,1.2c0,0-0.1,0-0.1,0c-0.1,0-0.3-0.1-0.3-0.2
		c-0.1-0.2,0-0.4,0.2-0.4l3.4-1.2C110.9,41.1,111.1,41.2,111.2,41.3z M110.6,39.5c0.1,0.3,0,0.6-0.3,0.7l-6.7,2.8
		c-0.1,0-0.1,0-0.2,0c-0.2,0-0.4-0.1-0.5-0.3c-0.1-0.3,0-0.6,0.3-0.7l6.7-2.8C110.1,39.1,110.4,39.2,110.6,39.5z M109.5,37.8
		c0.1,0.2,0,0.4-0.2,0.4l-3.3,1.5c0,0-0.1,0-0.1,0c-0.1,0-0.2-0.1-0.3-0.2c-0.1-0.2,0-0.4,0.2-0.4l3.3-1.5
		C109.2,37.6,109.4,37.6,109.5,37.8z M108.6,35.8c0.1,0.2,0,0.4-0.1,0.4l-3.2,1.6c0,0-0.1,0-0.2,0c-0.1,0-0.2-0.1-0.3-0.2
		c-0.1-0.2,0-0.4,0.1-0.4l3.2-1.6C108.3,35.6,108.5,35.7,108.6,35.8z M107.6,33.9c0.1,0.2,0,0.4-0.1,0.5l-3.1,1.8
		c-0.1,0-0.1,0-0.2,0c-0.1,0-0.2-0.1-0.3-0.2c-0.1-0.2,0-0.4,0.1-0.5l3.1-1.8C107.3,33.7,107.5,33.7,107.6,33.9z M106.5,32
		c0.1,0.2,0,0.4-0.1,0.5l-3.1,1.9c-0.1,0-0.1,0-0.2,0c-0.1,0-0.2-0.1-0.3-0.2c-0.1-0.2,0-0.4,0.1-0.5l3.1-1.9
		C106.2,31.8,106.4,31.9,106.5,32z M105.7,29.9c0.2,0.2,0.1,0.6-0.1,0.7l-4.9,3.2c-0.1,0.1-0.2,0.1-0.3,0.1c-0.2,0-0.3-0.1-0.4-0.2
		c-0.2-0.2-0.1-0.6,0.1-0.7l4.9-3.2C105.3,29.6,105.6,29.7,105.7,29.9z M104.1,28.4c0.1,0.1,0.1,0.4-0.1,0.5l-2.9,2.1
		c-0.1,0-0.1,0.1-0.2,0.1c-0.1,0-0.2,0-0.3-0.1c-0.1-0.1-0.1-0.4,0.1-0.5l2.9-2.1C103.8,28.2,104,28.2,104.1,28.4z M102.9,26.6
		c0.1,0.1,0.1,0.4-0.1,0.5l-2.8,2.2c-0.1,0-0.1,0.1-0.2,0.1c-0.1,0-0.2,0-0.3-0.1c-0.1-0.1-0.1-0.4,0.1-0.5l2.8-2.2
		C102.5,26.4,102.7,26.5,102.9,26.6z M101.5,24.9c0.1,0.1,0.1,0.3,0,0.5l-2.7,2.3c-0.1,0.1-0.1,0.1-0.2,0.1c-0.1,0-0.2,0-0.3-0.1
		c-0.1-0.1-0.1-0.3,0-0.5l2.7-2.3C101.2,24.8,101.4,24.8,101.5,24.9z M100.1,23.3c0.1,0.1,0.1,0.3,0,0.5l-2.6,2.4
		c-0.1,0.1-0.1,0.1-0.2,0.1c-0.1,0-0.2,0-0.2-0.1c-0.1-0.1-0.1-0.3,0-0.5l2.6-2.4C99.8,23.1,100,23.1,100.1,23.3z M98.7,21.9
		c0.3,0.3,0.3,0.7,0,0.9l-6.5,6.5c-0.1,0.1-0.3,0.2-0.5,0.2s-0.3-0.1-0.5-0.2c-0.3-0.3-0.3-0.7,0-0.9l6.5-6.5
		C98,21.6,98.4,21.6,98.7,21.9z M96.9,20.9c0.1,0.1,0.1,0.3,0,0.5l-2.3,2.5c-0.1,0.1-0.2,0.1-0.2,0.1c-0.1,0-0.2,0-0.2-0.1
		c-0.1-0.1-0.1-0.3,0-0.5l2.3-2.5C96.5,20.8,96.7,20.7,96.9,20.9z M95.3,19.4c0.1,0.1,0.2,0.3,0,0.5l-2.2,2.5
		c-0.1,0.1-0.2,0.1-0.3,0.1c-0.1,0-0.2,0-0.2-0.1c-0.1-0.1-0.2-0.3,0-0.5l2.2-2.5C94.9,19.3,95.2,19.3,95.3,19.4z M93.7,18
		c0.1,0.1,0.2,0.3,0.1,0.5l-2.1,2.6c-0.1,0.1-0.2,0.1-0.3,0.1c-0.1,0-0.1,0-0.2-0.1C91,21,91,20.8,91.1,20.7l2.1-2.6
		C93.3,17.9,93.5,17.9,93.7,18z M26.6,17.6c0.1-0.1,0.4-0.1,0.5,0.1l2.2,2.8c0.1,0.1,0.1,0.4-0.1,0.5c-0.1,0-0.1,0.1-0.2,0.1
		c-0.1,0-0.2,0-0.3-0.1l-2.2-2.8C26.5,17.9,26.5,17.7,26.6,17.6z M25,18.9c0.1-0.1,0.3-0.1,0.5,0l2.3,2.7c0.1,0.1,0.1,0.3,0,0.5
		c-0.1,0.1-0.1,0.1-0.2,0.1c-0.1,0-0.2,0-0.3-0.1L25,19.4C24.8,19.2,24.9,19,25,18.9z M23.4,20.3c0.1-0.1,0.3-0.1,0.5,0l2.4,2.6
		c0.1,0.1,0.1,0.3,0,0.5c-0.1,0.1-0.1,0.1-0.2,0.1c-0.1,0-0.2,0-0.2-0.1l-2.4-2.6C23.3,20.6,23.3,20.4,23.4,20.3z M20.5,23.8
		c0.1-0.1,0.3-0.1,0.5,0l2.5,2.3c0.1,0.1,0.1,0.3,0,0.5c-0.1,0.1-0.2,0.1-0.2,0.1c-0.1,0-0.2,0-0.2-0.1l-2.5-2.3
		C20.3,24.1,20.3,23.9,20.5,23.8z M19.1,25.3c0.1-0.1,0.3-0.2,0.5,0l2.6,2.2c0.1,0.1,0.2,0.3,0,0.5c-0.1,0.1-0.2,0.1-0.3,0.1
		c-0.1,0-0.2,0-0.2-0.1l-2.6-2.2C19,25.7,18.9,25.5,19.1,25.3z M17.7,26.9c0.1-0.1,0.3-0.2,0.5-0.1l2.7,2.1c0.1,0.1,0.2,0.3,0.1,0.5
		c-0.1,0.1-0.2,0.1-0.3,0.1c-0.1,0-0.1,0-0.2-0.1l-2.7-2.1C17.6,27.3,17.6,27.1,17.7,26.9z M16.4,28.6c0.1-0.1,0.3-0.2,0.5-0.1
		l2.8,2c0.1,0.1,0.2,0.3,0.1,0.5c-0.1,0.1-0.2,0.1-0.3,0.1c-0.1,0-0.1,0-0.2-0.1l-2.8-2C16.4,28.9,16.3,28.7,16.4,28.6z M14.8,30
		c0.2-0.2,0.5-0.3,0.7-0.1l4.7,3.1c0.2,0.2,0.3,0.5,0.1,0.7c-0.1,0.2-0.3,0.2-0.4,0.2c-0.1,0-0.2,0-0.3-0.1L15,30.7
		C14.8,30.6,14.7,30.3,14.8,30z M14.1,32c0.1-0.2,0.3-0.2,0.5-0.1l2.9,1.8c0.2,0.1,0.2,0.3,0.1,0.5c-0.1,0.1-0.2,0.2-0.3,0.2
		c-0.1,0-0.1,0-0.2,0l-2.9-1.8C14,32.4,14,32.1,14.1,32z M13,33.8c0.1-0.2,0.3-0.2,0.5-0.1l3,1.7c0.2,0.1,0.2,0.3,0.1,0.5
		c-0.1,0.1-0.2,0.2-0.3,0.2c-0.1,0-0.1,0-0.2,0l-3-1.7C13,34.1,12.9,33.9,13,33.8z M12,35.6c0.1-0.2,0.3-0.2,0.4-0.1l3.1,1.6
		c0.2,0.1,0.2,0.3,0.1,0.4c-0.1,0.1-0.2,0.2-0.3,0.2c-0.1,0-0.1,0-0.1,0L12.2,36C12,36,11.9,35.8,12,35.6z M11.1,37.5
		c0.1-0.2,0.3-0.2,0.4-0.2l3.1,1.4c0.2,0.1,0.2,0.3,0.2,0.4c-0.1,0.1-0.2,0.2-0.3,0.2c0,0-0.1,0-0.1,0l-3.1-1.4
		C11.1,37.8,11,37.6,11.1,37.5z M10.1,39.5c0.1-0.3,0.4-0.4,0.7-0.3l6.6,2.7c0.3,0.1,0.4,0.4,0.3,0.7c-0.1,0.2-0.3,0.3-0.5,0.3
		c-0.1,0-0.1,0-0.2,0l-6.6-2.7C10.1,40.1,9.9,39.8,10.1,39.5z M9.9,41.6l3.2,1.2c0.2,0.1,0.3,0.3,0.2,0.4c0,0.1-0.2,0.2-0.3,0.2
		c0,0-0.1,0-0.1,0l-3.2-1.2c-0.2-0.1-0.3-0.3-0.2-0.4S9.7,41.5,9.9,41.6z M8.7,43.8c0.1-0.2,0.2-0.3,0.4-0.2l3.3,1.1
		c0.2,0.1,0.3,0.2,0.2,0.4c0,0.1-0.2,0.2-0.3,0.2c0,0-0.1,0-0.1,0L9,44.2C8.8,44.1,8.7,43.9,8.7,43.8z M8.1,45.7
		c0-0.2,0.2-0.3,0.4-0.2l3.3,0.9c0.2,0,0.3,0.2,0.2,0.4c0,0.1-0.2,0.2-0.3,0.2c0,0-0.1,0-0.1,0l-3.3-0.9C8.2,46.1,8.1,45.9,8.1,45.7
		z M7.6,47.7c0-0.2,0.2-0.3,0.4-0.2l3.3,0.8c0.2,0,0.3,0.2,0.2,0.4c0,0.2-0.2,0.3-0.3,0.3c0,0-0.1,0-0.1,0l-3.3-0.8
		C7.7,48.1,7.6,47.9,7.6,47.7z M7.3,49.3l5.5,1.1c0.3,0.1,0.5,0.3,0.4,0.6c0,0.3-0.3,0.4-0.5,0.4c0,0-0.1,0-0.1,0l-5.5-1.1
		c-0.3-0.1-0.5-0.3-0.4-0.6C6.8,49.4,7,49.2,7.3,49.3z M10.8,52.4c0,0.2-0.2,0.3-0.3,0.3c0,0,0,0-0.1,0l-3.4-0.5
		c-0.2,0-0.3-0.2-0.3-0.4c0-0.2,0.2-0.3,0.4-0.3l3.4,0.5C10.7,52.1,10.9,52.3,10.8,52.4z M6.9,53.6l3.4,0.4c0.2,0,0.3,0.2,0.3,0.4
		c0,0.2-0.2,0.3-0.3,0.3c0,0,0,0,0,0l-3.4-0.4c-0.2,0-0.3-0.2-0.3-0.4S6.7,53.5,6.9,53.6z M6.6,55.6l3.4,0.3c0.2,0,0.3,0.3,0.3,0.5
		c0,0.2-0.2,0.4-0.3,0.4c0,0,0,0,0,0l-3.4-0.4c-0.2,0-0.3-0.2-0.3-0.4S6.5,55.6,6.6,55.6z M6.5,57.7l3.4,0.1c0.2,0,0.3,0.3,0.3,0.5
		c0,0.2-0.2,0.4-0.3,0.4c0,0,0,0,0,0l-3.4-0.3c-0.2,0-0.3-0.2-0.3-0.4C6.2,57.9,6.3,57.7,6.5,57.7z M5.3,60.2c0-0.3,0.2-0.5,0.5-0.5
		h10c0.3,0,0.5,0.2,0.5,0.5s-0.2,0.5-0.5,0.5h-10C5.6,60.7,5.3,60.5,5.3,60.2z M10.8,68.2c0,0.2-0.1,0.4-0.3,0.4L7,69.1
		c0,0,0,0-0.1,0c-0.2,0-0.3-0.1-0.3-0.3c0-0.2,0.1-0.4,0.3-0.4l3.6-0.6C10.6,67.9,10.8,68,10.8,68.2z M6,62.5c0-0.2,0.1-0.3,0.3-0.3
		l3.6-0.1c0.2,0,0.3,0.2,0.3,0.3c0,0.2-0.1,0.2-0.3,0.2l-3.6,0c0,0,0,0,0,0C6.1,62.7,6,62.7,6,62.5z M6.1,64.6
		c0-0.2,0.1-0.3,0.3-0.3l3.6-0.2c0.2,0,0.3,0.1,0.4,0.3s-0.1,0.2-0.3,0.2l-3.6,0.1c0,0,0,0,0,0C6.3,64.7,6.1,64.8,6.1,64.6z
		 M6.3,66.8c0-0.2,0.1-0.3,0.3-0.4l3.6-0.4c0.2,0,0.3,0.1,0.4,0.3s-0.1,0.3-0.3,0.4l-3.6,0.4c0,0,0,0,0,0C6.5,67.1,6.3,67,6.3,66.8z
		 M7,71.4c-0.2,0-0.5-0.2-0.5-0.4c-0.1-0.3,0.1-0.6,0.4-0.6l5.7-1.1c0.3-0.1,0.6,0.1,0.6,0.4c0.1,0.3-0.1,0.6-0.4,0.6l-5.7,1.1
		C7.1,71.4,7.1,71.4,7,71.4z M7.8,73.2c-0.1,0-0.3-0.1-0.3-0.3c0-0.2,0.1-0.4,0.2-0.4l3.5-0.8c0.2,0,0.4,0.1,0.4,0.2
		c0,0.2-0.1,0.4-0.2,0.4L7.8,73.2C7.8,73.2,7.8,73.2,7.8,73.2z M8.3,75.2C8.2,75.2,8,75.1,8,75c0-0.2,0.1-0.4,0.2-0.4l3.5-1
		c0.2,0,0.4,0.1,0.4,0.2c0,0.2-0.1,0.4-0.2,0.4L8.3,75.2C8.4,75.2,8.3,75.2,8.3,75.2z M8.9,77.2c-0.1,0-0.3-0.1-0.3-0.2
		c-0.1-0.2,0-0.4,0.2-0.4l3.4-1.1c0.2-0.1,0.4,0,0.4,0.2c0.1,0.2,0,0.4-0.2,0.4L9,77.2C9,77.2,9,77.2,8.9,77.2z M9.6,79.1
		c-0.1,0-0.3-0.1-0.3-0.2c-0.1-0.2,0-0.4,0.2-0.4l3.4-1.2c0.2-0.1,0.4,0,0.4,0.2c0.1,0.2,0,0.4-0.2,0.4l-3.4,1.2
		C9.7,79.1,9.7,79.1,9.6,79.1z M10.4,81.5c-0.2,0-0.4-0.1-0.5-0.3c-0.1-0.3,0-0.6,0.3-0.7l6.7-2.8c0.3-0.1,0.6,0,0.7,0.3
		c0.1,0.3,0,0.6-0.3,0.7l-6.7,2.8C10.5,81.5,10.5,81.5,10.4,81.5z M11.2,83.4c-0.1,0-0.2-0.1-0.3-0.2c-0.1-0.2,0-0.4,0.2-0.4
		l3.3-1.5c0.2-0.1,0.4,0,0.4,0.2c0.1,0.2,0,0.4-0.2,0.4l-3.3,1.5C11.3,83.4,11.3,83.4,11.2,83.4z M12.2,85.3c-0.1,0-0.2-0.1-0.3-0.2
		c-0.1-0.2,0-0.4,0.1-0.4l3.2-1.6c0.2-0.1,0.4,0,0.4,0.1c0.1,0.2,0,0.4-0.1,0.4l-3.2,1.6C12.3,85.3,12.2,85.3,12.2,85.3z M13.2,87.1
		c-0.1,0-0.2-0.1-0.3-0.2c-0.1-0.2,0-0.4,0.1-0.5l3.1-1.8c0.2-0.1,0.4,0,0.5,0.1c0.1,0.2,0,0.4-0.1,0.5l-3.1,1.8
		C13.3,87.1,13.2,87.1,13.2,87.1z M14.2,88.9c-0.1,0-0.2-0.1-0.3-0.2c-0.1-0.2,0-0.4,0.1-0.5l3.1-1.9c0.2-0.1,0.4,0,0.5,0.1
		c0.1,0.2,0,0.4-0.1,0.5l-3.1,1.9C14.4,88.9,14.3,88.9,14.2,88.9z M15.1,91c-0.2,0-0.3-0.1-0.4-0.2c-0.2-0.2-0.1-0.6,0.1-0.7
		l4.9-3.3c0.2-0.2,0.6-0.1,0.7,0.1c0.2,0.2,0.1,0.6-0.1,0.7l-4.9,3.3C15.3,91,15.2,91,15.1,91z M16.6,92.3c-0.1,0-0.2,0-0.3-0.1
		c-0.1-0.1-0.1-0.4,0.1-0.5l2.9-2.1c0.1-0.1,0.4-0.1,0.5,0.1c0.1,0.1,0.1,0.4-0.1,0.5l-2.9,2.1C16.7,92.3,16.7,92.3,16.6,92.3z
		 M17.9,93.9c-0.1,0-0.2,0-0.3-0.1c-0.1-0.1-0.1-0.4,0.1-0.5l2.8-2.2c0.1-0.1,0.4-0.1,0.5,0.1c0.1,0.1,0.1,0.4-0.1,0.5l-2.8,2.2
		C18,93.9,17.9,93.9,17.9,93.9z M19.2,95.5c-0.1,0-0.2,0-0.3-0.1c-0.1-0.1-0.1-0.3,0-0.5l2.7-2.3c0.1-0.1,0.3-0.1,0.5,0
		c0.1,0.1,0.1,0.3,0,0.5l-2.7,2.3C19.4,95.5,19.3,95.5,19.2,95.5z M20.6,97.1c-0.1,0-0.2,0-0.2-0.1c-0.1-0.1-0.1-0.3,0-0.5L23,94
		c0.1-0.1,0.3-0.1,0.5,0c0.1,0.1,0.1,0.3,0,0.5L20.8,97C20.8,97,20.7,97.1,20.6,97.1z M29.2,92.3l-6.5,6.5c-0.1,0.1-0.3,0.2-0.5,0.2
		s-0.3-0.1-0.5-0.2c-0.3-0.3-0.3-0.7,0-0.9l6.5-6.5c0.3-0.3,0.7-0.3,0.9,0C29.5,91.6,29.5,92,29.2,92.3z M29.2,29.3
		c-0.1,0.1-0.3,0.2-0.5,0.2s-0.3-0.1-0.5-0.2l-6.6-6.6c-0.3-0.3-0.3-0.7,0-0.9c0.3-0.3,0.7-0.3,0.9,0l6.6,6.6
		C29.5,28.6,29.5,29.1,29.2,29.3z M30.8,19.8c-0.1,0-0.1,0.1-0.2,0.1c-0.1,0-0.2,0-0.3-0.1l-2.1-2.9c-0.1-0.1-0.1-0.4,0.1-0.5
		c0.1-0.1,0.4-0.1,0.5,0.1l2.1,2.9C31,19.5,31,19.7,30.8,19.8z M33.6,20.5c-0.1,0.1-0.2,0.1-0.3,0.1c-0.2,0-0.3-0.1-0.4-0.2
		l-3.2-4.8c-0.2-0.2-0.1-0.6,0.1-0.7c0.2-0.2,0.6-0.1,0.7,0.1l3.2,4.8C33.9,20,33.9,20.4,33.6,20.5z M34.1,17.7c-0.1,0-0.1,0-0.2,0
		c-0.1,0-0.2-0.1-0.3-0.2l-1.9-3.1c-0.1-0.2,0-0.4,0.1-0.5s0.4,0,0.5,0.1l1.9,3.1C34.3,17.4,34.3,17.6,34.1,17.7z M35.8,16.8
		c-0.1,0-0.1,0-0.2,0c-0.1,0-0.2-0.1-0.3-0.2l-1.8-3.1c-0.1-0.2,0-0.4,0.1-0.5c0.2-0.1,0.4,0,0.5,0.1l1.8,3.1
		C36,16.5,35.9,16.7,35.8,16.8z M37.5,15.9c0,0-0.1,0-0.1,0c-0.1,0-0.2-0.1-0.3-0.2l-1.6-3.2c-0.1-0.2,0-0.4,0.1-0.4
		c0.2-0.1,0.4,0,0.4,0.1l1.6,3.2C37.7,15.6,37.7,15.8,37.5,15.9z M39.3,15.1c0,0-0.1,0-0.1,0c-0.1,0-0.2-0.1-0.3-0.2l-1.5-3.3
		c-0.1-0.2,0-0.4,0.2-0.4c0.2-0.1,0.4,0,0.4,0.2l1.5,3.3C39.5,14.8,39.4,15,39.3,15.1z M42.6,17.7c-0.1,0-0.1,0-0.2,0
		c-0.2,0-0.4-0.1-0.5-0.3l-2.8-6.7c-0.1-0.3,0-0.6,0.3-0.7c0.3-0.1,0.6,0,0.7,0.3l2.8,6.7C43,17.3,42.8,17.6,42.6,17.7z M42.9,13.2
		c0,0-0.1,0-0.1,0c-0.1,0-0.3-0.1-0.3-0.2l-1.2-3.4c-0.1-0.2,0-0.4,0.2-0.4c0.2-0.1,0.4,0,0.4,0.2l1.2,3.4
		C43.2,12.9,43.1,13.1,42.9,13.2z M44.8,12.6c0,0-0.1,0-0.1,0c-0.1,0-0.3-0.1-0.3-0.2L43.3,9c-0.1-0.2,0-0.4,0.2-0.4
		c0.2-0.1,0.4,0,0.4,0.2l1.1,3.4C45.1,12.4,45,12.5,44.8,12.6z M46.7,12.1C46.6,12.1,46.6,12.1,46.7,12.1c-0.2,0-0.4-0.1-0.4-0.2
		l-1-3.4c0-0.2,0.1-0.4,0.2-0.4c0.2-0.1,0.4,0.1,0.4,0.2l1,3.4C46.9,11.8,46.8,12,46.7,12.1z M48.6,11.6
		C48.5,11.6,48.5,11.6,48.6,11.6c-0.2,0-0.4-0.1-0.4-0.2l-0.8-3.5c0-0.2,0.1-0.4,0.2-0.4c0.2,0,0.4,0.1,0.4,0.2l0.8,3.5
		C48.9,11.4,48.7,11.6,48.6,11.6z M50.9,13.4c0,0-0.1,0-0.1,0c-0.2,0-0.5-0.2-0.5-0.4l-1.1-5.7c-0.1-0.3,0.1-0.6,0.4-0.6
		c0.3-0.1,0.6,0.1,0.6,0.4l1.1,5.7C51.3,13,51.2,13.3,50.9,13.4z M52.4,11C52.4,11,52.4,11,52.4,11c-0.2,0-0.4-0.1-0.4-0.3l-0.6-3.5
		c0-0.2,0.1-0.4,0.3-0.4c0.2,0,0.4,0.1,0.4,0.3l0.6,3.5C52.7,10.8,52.6,10.9,52.4,11z M54.3,10.8C54.3,10.8,54.3,10.8,54.3,10.8
		c-0.2,0-0.3-0.1-0.4-0.3l-0.4-3.6c0-0.2,0.1-0.3,0.3-0.4c0.2,0,0.3,0.1,0.4,0.3l0.4,3.6C54.7,10.6,54.5,10.7,54.3,10.8z M56.3,10.7
		C56.3,10.7,56.3,10.7,56.3,10.7c-0.2,0-0.3-0.2-0.4-0.4l-0.3-3.6c0-0.2,0.1-0.4,0.3-0.4c0.2,0,0.3,0.1,0.4,0.3l0.3,3.6
		C56.6,10.5,56.5,10.7,56.3,10.7z M58.2,10.7C58.2,10.7,58.2,10.7,58.2,10.7c-0.2,0-0.3-0.2-0.3-0.4l-0.1-3.6c0-0.2,0.1-0.4,0.3-0.4
		c0.2,0,0.3,0.1,0.3,0.3l0.1,3.7C58.6,10.5,58.4,10.7,58.2,10.7z M60.8,14.7c0,0.3-0.2,0.5-0.5,0.5s-0.5-0.2-0.5-0.5v-9
		c0-0.3,0.2-0.5,0.5-0.5s0.5,0.2,0.5,0.5V14.7z M62.5,9.6c0,0.2-0.2,0.1-0.3,0.1c0,0,0,0,0,0c-0.2,0-0.3,0-0.3-0.1L62,6.4
		c0-0.2,0.2-0.3,0.3-0.3c0.2,0,0.3,0.2,0.3,0.4L62.5,9.6z M64.5,10.2c0,0.2-0.2,0.5-0.3,0.5c0,0,0,0,0,0c-0.2,0-0.3-0.4-0.3-0.6
		l0.3-3.4c0-0.2,0.2-0.4,0.4-0.4c0.2,0,0.3,0.1,0.3,0.3L64.5,10.2z M66.5,10.3c0,0.2-0.2,0.3-0.3,0.3c0,0,0,0,0,0
		c-0.2,0-0.3-0.2-0.3-0.4l0.4-3.3c0-0.2,0.2-0.3,0.4-0.3c0.2,0,0.3,0.2,0.3,0.4L66.5,10.3z M68.4,10.6c0,0.2-0.2,0.3-0.3,0.3
		c0,0,0,0-0.1,0c-0.2,0-0.3-0.2-0.3-0.4l0.5-3.3c0-0.2,0.2-0.3,0.4-0.3C68.9,7,69,7.1,69,7.3L68.4,10.6z M70.2,12.9
		c0,0.3-0.3,0.4-0.5,0.4c0,0-0.1,0-0.1,0c-0.3-0.1-0.5-0.3-0.4-0.6l1.1-5.3c0.1-0.3,0.3-0.5,0.6-0.4c0.3,0.1,0.5,0.3,0.4,0.6
		L70.2,12.9z M72.3,11.5c0,0.2-0.2,0.3-0.3,0.3c0,0-0.1,0-0.1,0c-0.2,0-0.3-0.2-0.2-0.4l0.8-3.2c0-0.2,0.2-0.3,0.4-0.2
		c0.2,0,0.3,0.2,0.2,0.4L72.3,11.5z M75.1,8.9l-0.9,3.2c0,0.1-0.2,0.2-0.3,0.2c0,0-0.1,0-0.1,0c-0.2,0-0.3-0.2-0.2-0.4l0.9-3.2
		c0-0.2,0.2-0.3,0.4-0.2C75.1,8.5,75.2,8.7,75.1,8.9z M76.1,12.7c0,0.1-0.2,0.2-0.3,0.2c0,0-0.1,0-0.1,0c-0.2-0.1-0.3-0.2-0.2-0.4
		l1-3.2c0.1-0.2,0.2-0.3,0.4-0.2c0.2,0.1,0.3,0.2,0.2,0.4L76.1,12.7z M77.3,13.2l1.2-3.1c0.1-0.2,0.3-0.3,0.4-0.2
		c0.2,0.1,0.3,0.3,0.2,0.4l-1.2,3.1c0,0.1-0.2,0.2-0.3,0.2c0,0-0.1,0-0.1,0C77.3,13.5,77.3,13.4,77.3,13.2z M78.1,17.7
		c-0.1,0-0.1,0-0.2,0c-0.3-0.1-0.4-0.4-0.3-0.7l2.7-6.5c0.1-0.3,0.4-0.4,0.7-0.3c0.3,0.1,0.4,0.4,0.3,0.7l-2.7,6.5
		C78.5,17.6,78.3,17.7,78.1,17.7z M81.3,14.7c0,0-0.1,0-0.1,0c-0.2-0.1-0.2-0.3-0.2-0.4l1.4-3c0.1-0.2,0.3-0.2,0.4-0.2
		c0.2,0.1,0.2,0.3,0.2,0.4l-1.4,3C81.6,14.7,81.4,14.7,81.3,14.7z M83.1,15.6c-0.1,0-0.1,0-0.2,0c-0.2-0.1-0.2-0.3-0.1-0.4l1.5-3
		c0.1-0.2,0.3-0.2,0.4-0.1c0.2,0.1,0.2,0.3,0.1,0.4l-1.5,3C83.3,15.6,83.2,15.6,83.1,15.6z M84.8,16.6c-0.1,0-0.1,0-0.2,0
		c-0.2-0.1-0.2-0.3-0.1-0.5l1.6-2.9c0.1-0.2,0.3-0.2,0.5-0.1c0.2,0.1,0.2,0.3,0.1,0.5l-1.6,2.9C85.1,16.6,85,16.6,84.8,16.6z
		 M86.4,17.6c-0.2-0.1-0.2-0.3-0.1-0.5l1.7-2.9c0.1-0.2,0.3-0.2,0.5-0.1c0.2,0.1,0.2,0.3,0.1,0.5l-1.7,2.9c-0.1,0.1-0.2,0.2-0.3,0.2
		C86.5,17.7,86.4,17.7,86.4,17.6z M87.1,20.5c-0.1,0-0.2,0-0.3-0.1c-0.2-0.2-0.3-0.5-0.1-0.7l3-4.5c0.2-0.2,0.5-0.3,0.7-0.1
		c0.2,0.2,0.3,0.5,0.1,0.7l-3,4.5C87.5,20.5,87.3,20.5,87.1,20.5z M89.8,20c-0.1,0-0.1,0-0.2-0.1c-0.1-0.1-0.2-0.3-0.1-0.5l2-2.7
		c0.1-0.1,0.3-0.2,0.5-0.1c0.1,0.1,0.2,0.3,0.1,0.5l-2,2.7C90,19.9,89.9,20,89.8,20z M98.7,98.8C98.6,99,98.4,99,98.3,99
		s-0.3-0.1-0.5-0.2l-6.6-6.6c-0.3-0.3-0.3-0.7,0-0.9c0.3-0.3,0.7-0.3,0.9,0l6.6,6.6C99,98.2,99,98.6,98.7,98.8z M100,97.3
		c-0.1,0.1-0.2,0.1-0.2,0.1c-0.1,0-0.2,0-0.2-0.1l-2.5-2.3c-0.1-0.1-0.1-0.3,0-0.5c0.1-0.1,0.3-0.1,0.5,0l2.5,2.3
		C100.1,96.9,100.1,97.1,100,97.3z M101.4,95.6c-0.1,0.1-0.2,0.1-0.3,0.1c-0.1,0-0.2,0-0.2-0.1l-2.6-2.2c-0.1-0.1-0.2-0.3,0-0.5
		s0.3-0.2,0.5,0l2.6,2.2C101.5,95.3,101.5,95.5,101.4,95.6z M102.7,93.9c-0.1,0.1-0.2,0.1-0.3,0.1c-0.1,0-0.1,0-0.2-0.1l-2.7-2.1
		c-0.1-0.1-0.2-0.3-0.1-0.5c0.1-0.1,0.3-0.2,0.5-0.1l2.7,2.1C102.8,93.6,102.8,93.8,102.7,93.9z M104,92.2c-0.1,0.1-0.2,0.1-0.3,0.1
		c-0.1,0-0.1,0-0.2-0.1l-2.8-2c-0.1-0.1-0.2-0.3-0.1-0.5c0.1-0.1,0.3-0.2,0.5-0.1l2.8,2C104.1,91.8,104.1,92,104,92.2z M105.6,90.6
		c-0.1,0.2-0.3,0.2-0.4,0.2c-0.1,0-0.2,0-0.3-0.1l-4.7-3.1c-0.2-0.2-0.3-0.5-0.1-0.7c0.2-0.2,0.5-0.3,0.7-0.1l4.7,3.1
		C105.7,90.1,105.7,90.4,105.6,90.6z M106.4,88.6c-0.1,0.1-0.2,0.2-0.3,0.2c-0.1,0-0.1,0-0.2,0l-2.9-1.8c-0.2-0.1-0.2-0.3-0.1-0.5
		c0.1-0.2,0.3-0.2,0.5-0.1l2.9,1.8C106.4,88.2,106.5,88.4,106.4,88.6z M107.5,86.7c-0.1,0.1-0.2,0.2-0.3,0.2c-0.1,0-0.1,0-0.2,0
		l-3-1.7c-0.2-0.1-0.2-0.3-0.1-0.5c0.1-0.2,0.3-0.2,0.5-0.1l3,1.7C107.5,86.3,107.6,86.5,107.5,86.7z M108.5,84.7
		c-0.1,0.1-0.2,0.2-0.3,0.2c-0.1,0-0.1,0-0.2,0l-3.1-1.6c-0.2-0.1-0.2-0.3-0.1-0.4c0.1-0.2,0.3-0.2,0.4-0.1l3.1,1.6
		C108.5,84.4,108.5,84.6,108.5,84.7z M109.4,82.8c-0.1,0.1-0.2,0.2-0.3,0.2c0,0-0.1,0-0.1,0l-3.1-1.4c-0.2-0.1-0.2-0.3-0.2-0.4
		s0.3-0.2,0.4-0.2l3.1,1.4C109.4,82.4,109.5,82.6,109.4,82.8z M110.4,81.1c-0.1,0.2-0.3,0.3-0.5,0.3c-0.1,0-0.1,0-0.2,0l-6.6-2.7
		c-0.3-0.1-0.4-0.4-0.3-0.7c0.1-0.3,0.4-0.4,0.7-0.3l6.6,2.7C110.4,80.5,110.5,80.8,110.4,81.1z M110.7,79.5c0,0-0.1,0-0.1,0
		l-3.2-1.2c-0.2-0.1-0.3-0.3-0.2-0.4c0.1-0.2,0.3-0.3,0.4-0.2l3.2,1.2c0.2,0.1,0.3,0.3,0.2,0.4C110.9,79.4,110.8,79.5,110.7,79.5z
		 M111.4,77.4c0,0-0.1,0-0.1,0l-3.3-1.1c-0.2-0.1-0.3-0.2-0.2-0.4c0.1-0.2,0.2-0.3,0.4-0.2l3.3,1.1c0.2,0.1,0.3,0.2,0.2,0.4
		C111.6,77.3,111.5,77.4,111.4,77.4z M112.3,75.1c0,0.1-0.2,0.2-0.3,0.2c0,0-0.1,0-0.1,0l-3.3-0.9c-0.2,0-0.3-0.2-0.2-0.4
		c0-0.2,0.2-0.3,0.4-0.2l3.3,0.9C112.3,74.8,112.4,74.9,112.3,75.1z M112.5,73.3C112.5,73.3,112.5,73.3,112.5,73.3l-3.4-0.8
		c-0.2,0-0.3-0.2-0.2-0.4c0-0.2,0.2-0.3,0.4-0.2l3.4,0.8c0.2,0,0.3,0.2,0.2,0.4C112.8,73.2,112.7,73.3,112.5,73.3z M113.2,71.4
		c0,0-0.1,0-0.1,0l-5.5-1.1c-0.3-0.1-0.5-0.3-0.4-0.6c0.1-0.3,0.3-0.5,0.6-0.4l5.5,1.1c0.3,0.1,0.5,0.3,0.4,0.6
		C113.7,71.2,113.5,71.4,113.2,71.4z M109.6,68.1c0-0.2,0.2-0.3,0.4-0.3l3.4,0.5c0.2,0,0.3,0.2,0.3,0.4c0,0.2-0.2,0.3-0.3,0.3
		c0,0,0,0-0.1,0l-3.4-0.5C109.7,68.4,109.6,68.3,109.6,68.1z M113.7,66.9C113.6,66.9,113.6,66.9,113.7,66.9l-3.5-0.4
		c-0.2,0-0.3-0.2-0.3-0.4c0-0.2,0.2-0.3,0.4-0.3l3.4,0.4c0.2,0,0.3,0.2,0.3,0.4C114,66.7,113.8,66.9,113.7,66.9z M113.9,64.7
		C113.9,64.7,113.8,64.7,113.9,64.7l-3.5-0.3c-0.2,0-0.3-0.2-0.3-0.4s0.2-0.3,0.4-0.3l3.4,0.3c0.2,0,0.3,0.2,0.3,0.4
		C114.2,64.6,114,64.7,113.9,64.7z M114,62.7C114,62.7,114,62.7,114,62.7l-3.5-0.2c-0.2,0-0.3-0.2-0.3-0.4c0-0.2,0.2-0.3,0.3-0.3
		l3.4,0.1c0.2,0,0.3,0.3,0.3,0.4C114.3,62.5,114.2,62.7,114,62.7z M113.8,60.7h-9c-0.3,0-0.5-0.2-0.5-0.5s0.2-0.5,0.5-0.5h9
		c0.3,0,0.5,0.2,0.5,0.5S114.1,60.7,113.8,60.7z M114.1,58.7l-3.6,0.1c0,0,0,0,0,0c-0.2,0-0.3-0.1-0.3-0.2c0-0.2,0.1-0.3,0.3-0.3
		l3.6-0.1c0.2,0,0.3,0.1,0.3,0.3C114.4,58.6,114.3,58.7,114.1,58.7z"/>
</g>
</svg>
