<?xml version="1.0" encoding="utf-8"?>
<!-- Generator: Adobe Illustrator 19.1.0, SVG Export Plug-In . SVG Version: 6.00 Build 0)  -->
<svg version="1.1" id="Layer_1" xmlns="http://www.w3.org/2000/svg" xmlns:xlink="http://www.w3.org/1999/xlink" x="0px" y="0px"
	 viewBox="0 0 127.6 127.6" style="enable-background:new 0 0 127.6 127.6;" xml:space="preserve">
<style type="text/css">
	.st0{fill:url(#SVGID_1_);}
	.st1{fill:url(#SVGID_2_);}
	.st2{fill:none;stroke:#0D8CC6;stroke-width:1.0518;stroke-linecap:round;stroke-linejoin:round;stroke-miterlimit:10;}
	.st3{fill:none;stroke:#0D8CC6;stroke-width:0.6621;stroke-linecap:round;stroke-linejoin:round;stroke-miterlimit:10;}
	.st4{fill:none;stroke:#0D8CC6;stroke-width:1.3243;stroke-linecap:round;stroke-linejoin:round;stroke-miterlimit:10;}
	.st5{fill:#1A1A1A;}
</style>
<radialGradient id="SVGID_1_" cx="64.1693" cy="63.9712" r="63.3898" gradientUnits="userSpaceOnUse">
	<stop  offset="0.7802" style="stop-color:#13181A"/>
	<stop  offset="0.8275" style="stop-color:#13181A"/>
	<stop  offset="0.95" style="stop-color:#13181A"/>
	<stop  offset="1" style="stop-color:#13181A;stop-opacity:0"/>
</radialGradient>
<path class="st0" d="M64.2,0.6C29.2,0.6,0.8,29,0.8,64c0,35,28.4,63.4,63.4,63.4c35,0,63.4-28.4,63.4-63.4
	C127.6,29,99.2,0.6,64.2,0.6z M118.4,62.1c0,0.2-0.1,0.3-0.3,0.3l-3.6,0.1c0,0,0,0,0,0c-0.2,0-0.3-0.1-0.3-0.2
	c0-0.2,0.1-0.3,0.3-0.3l3.6-0.1C118.2,61.8,118.4,62,118.4,62.1z M118.3,60c0,0.2-0.1,0.3-0.3,0.3l-3.6,0.2c0,0,0,0,0,0
	c-0.2,0-0.3-0.1-0.3-0.2c0-0.2,0.1-0.3,0.3-0.3l3.6-0.3C118.1,59.6,118.2,59.8,118.3,60z M118.1,57.8c0,0.2-0.1,0.3-0.3,0.4
	l-3.6,0.4c0,0,0,0,0,0c-0.2,0-0.3-0.1-0.3-0.3c0-0.2,0.1-0.3,0.3-0.4l3.6-0.4C117.9,57.5,118,57.6,118.1,57.8z M113.6,56.3
	c0-0.2,0.1-0.4,0.3-0.4l3.6-0.6c0.2,0,0.4,0.1,0.4,0.3c0,0.2-0.1,0.4-0.3,0.4l-3.6,0.6c0,0,0,0-0.1,0
	C113.7,56.6,113.6,56.5,113.6,56.3z M117.9,53.4c0.1,0.3-0.1,0.6-0.4,0.6l-5.7,1.1c0,0-0.1,0-0.1,0c-0.2,0-0.5-0.2-0.5-0.4
	c-0.1-0.3,0.1-0.6,0.4-0.6l5.7-1.1C117.5,52.9,117.8,53.1,117.9,53.4z M116.9,51.3c0,0.2-0.1,0.4-0.2,0.4l-3.5,0.8c0,0-0.1,0-0.1,0
	c-0.1,0-0.3-0.1-0.3-0.3c0-0.2,0.1-0.4,0.2-0.4l3.5-0.8C116.7,51,116.9,51.2,116.9,51.3z M116.4,49.2c0,0.2-0.1,0.4-0.2,0.4l-3.5,1
	c0,0-0.1,0-0.1,0c-0.1,0-0.3-0.1-0.3-0.2c0-0.2,0.1-0.4,0.2-0.4l3.5-1C116.2,48.9,116.4,49,116.4,49.2z M115.8,47.1
	c0.1,0.2,0,0.4-0.2,0.4l-3.4,1.1c0,0-0.1,0-0.1,0c-0.1,0-0.3-0.1-0.3-0.2c-0.1-0.2,0-0.4,0.2-0.4l3.4-1.1
	C115.5,46.9,115.7,47,115.8,47.1z M115.1,45.1c0.1,0.2,0,0.4-0.2,0.4l-3.4,1.2c0,0-0.1,0-0.1,0c-0.1,0-0.3-0.1-0.3-0.2
	c-0.1-0.2,0-0.4,0.2-0.4l3.4-1.2C114.8,44.8,115,44.9,115.1,45.1z M114.5,43.2c0.1,0.3,0,0.6-0.3,0.7l-6.7,2.8c-0.1,0-0.1,0-0.2,0
	c-0.2,0-0.4-0.1-0.5-0.3c-0.1-0.3,0-0.6,0.3-0.7l6.7-2.8C114.1,42.8,114.4,42.9,114.5,43.2z M113.4,41.5c0.1,0.2,0,0.4-0.2,0.4
	l-3.3,1.5c0,0-0.1,0-0.1,0c-0.1,0-0.2-0.1-0.3-0.2c-0.1-0.2,0-0.4,0.2-0.4l3.3-1.5C113.2,41.3,113.4,41.4,113.4,41.5z M112.5,39.6
	c0.1,0.2,0,0.4-0.1,0.4l-3.2,1.6c0,0-0.1,0-0.1,0c-0.1,0-0.2-0.1-0.3-0.2c-0.1-0.2,0-0.4,0.1-0.4l3.2-1.6
	C112.2,39.3,112.4,39.4,112.5,39.6z M111.5,37.6c0.1,0.2,0,0.4-0.1,0.5l-3.1,1.8c-0.1,0-0.1,0-0.2,0c-0.1,0-0.2-0.1-0.3-0.2
	c-0.1-0.2,0-0.4,0.1-0.5l3.1-1.8C111.2,37.4,111.4,37.5,111.5,37.6z M110.4,35.8c0.1,0.2,0,0.4-0.1,0.5l-3.1,1.9c-0.1,0-0.1,0-0.2,0
	c-0.1,0-0.2-0.1-0.3-0.2c-0.1-0.2,0-0.4,0.1-0.5l3.1-1.9C110.1,35.5,110.3,35.6,110.4,35.8z M109.7,33.6c0.2,0.2,0.1,0.6-0.1,0.7
	l-4.9,3.2c-0.1,0.1-0.2,0.1-0.3,0.1c-0.2,0-0.3-0.1-0.4-0.2c-0.2-0.2-0.1-0.6,0.1-0.7l4.9-3.2C109.2,33.3,109.5,33.4,109.7,33.6z
	 M108.1,32.1c0.1,0.1,0.1,0.4-0.1,0.5l-2.9,2.1c-0.1,0-0.1,0.1-0.2,0.1c-0.1,0-0.2,0-0.3-0.1c-0.1-0.1-0.1-0.4,0.1-0.5l2.9-2.1
	C107.8,31.9,108,32,108.1,32.1z M106.8,30.4c0.1,0.1,0.1,0.4-0.1,0.5l-2.8,2.2c-0.1,0-0.1,0.1-0.2,0.1c-0.1,0-0.2,0-0.3-0.1
	c-0.1-0.1-0.1-0.4,0.1-0.5l2.8-2.2C106.5,30.2,106.7,30.2,106.8,30.4z M105.4,28.7c0.1,0.1,0.1,0.3,0,0.5l-2.7,2.3
	c-0.1,0.1-0.1,0.1-0.2,0.1c-0.1,0-0.2,0-0.3-0.1c-0.1-0.1-0.1-0.3,0-0.5l2.7-2.3C105.1,28.5,105.3,28.5,105.4,28.7z M104,27
	c0.1,0.1,0.1,0.3,0,0.5l-2.6,2.4c-0.1,0.1-0.1,0.1-0.2,0.1c-0.1,0-0.2,0-0.2-0.1c-0.1-0.1-0.1-0.3,0-0.5l2.6-2.4
	C103.7,26.9,103.9,26.9,104,27z M102.6,25.6c0.3,0.3,0.3,0.7,0,0.9l-6.5,6.5c-0.1,0.1-0.3,0.2-0.5,0.2s-0.3-0.1-0.5-0.2
	c-0.3-0.3-0.3-0.7,0-0.9l6.5-6.5C101.9,25.4,102.3,25.4,102.6,25.6z M100.8,24.6c0.1,0.1,0.1,0.3,0,0.5l-2.3,2.5
	c-0.1,0.1-0.2,0.1-0.2,0.1c-0.1,0-0.2,0-0.2-0.1c-0.1-0.1-0.1-0.3,0-0.5l2.3-2.5C100.5,24.5,100.7,24.5,100.8,24.6z M99.2,23.1
	c0.1,0.1,0.2,0.3,0,0.5l-2.2,2.5c-0.1,0.1-0.2,0.1-0.3,0.1c-0.1,0-0.2,0-0.2-0.1c-0.1-0.1-0.2-0.3,0-0.5l2.2-2.5
	C98.9,23,99.1,23,99.2,23.1z M97.6,21.7c0.1,0.1,0.2,0.3,0.1,0.5l-2.1,2.6c-0.1,0.1-0.2,0.1-0.3,0.1c-0.1,0-0.1,0-0.2-0.1
	c-0.1-0.1-0.2-0.3-0.1-0.5l2.1-2.6C97.2,21.7,97.5,21.6,97.6,21.7z M30.6,21.3c0.1-0.1,0.4-0.1,0.5,0.1l2.2,2.8
	c0.1,0.1,0.1,0.4-0.1,0.5c-0.1,0-0.1,0.1-0.2,0.1c-0.1,0-0.2,0-0.3-0.1l-2.2-2.8C30.4,21.7,30.4,21.5,30.6,21.3z M28.9,22.6
	c0.1-0.1,0.3-0.1,0.5,0l2.3,2.7c0.1,0.1,0.1,0.3,0,0.5c-0.1,0.1-0.1,0.1-0.2,0.1c-0.1,0-0.2,0-0.3-0.1l-2.3-2.7
	C28.8,23,28.8,22.8,28.9,22.6z M27.3,24c0.1-0.1,0.3-0.1,0.5,0l2.4,2.6c0.1,0.1,0.1,0.3,0,0.5c-0.1,0.1-0.1,0.1-0.2,0.1
	c-0.1,0-0.2,0-0.2-0.1l-2.4-2.6C27.2,24.3,27.2,24.1,27.3,24z M25.7,25.6c0.3-0.3,0.7-0.3,0.9,0l6.6,6.6c0.3,0.3,0.3,0.7,0,0.9
	c-0.1,0.1-0.3,0.2-0.5,0.2s-0.3-0.1-0.5-0.2l-6.6-6.6C25.4,26.2,25.4,25.8,25.7,25.6z M24.4,27.5c0.1-0.1,0.3-0.1,0.5,0l2.5,2.3
	c0.1,0.1,0.1,0.3,0,0.5c-0.1,0.1-0.2,0.1-0.2,0.1c-0.1,0-0.2,0-0.2-0.1L24.4,28C24.3,27.9,24.3,27.7,24.4,27.5z M23,29.1
	c0.1-0.1,0.3-0.2,0.5,0l2.6,2.2c0.1,0.1,0.2,0.3,0,0.5c-0.1,0.1-0.2,0.1-0.3,0.1c-0.1,0-0.2,0-0.2-0.1L23,29.5
	C22.9,29.4,22.9,29.2,23,29.1z M21.7,30.7c0.1-0.1,0.3-0.2,0.5-0.1l2.7,2.1c0.1,0.1,0.2,0.3,0.1,0.5c-0.1,0.1-0.2,0.1-0.3,0.1
	c-0.1,0-0.1,0-0.2-0.1l-2.7-2.1C21.6,31,21.5,30.8,21.7,30.7z M20.4,32.3c0.1-0.1,0.3-0.2,0.5-0.1l2.8,2c0.1,0.1,0.2,0.3,0.1,0.5
	c-0.1,0.1-0.2,0.1-0.3,0.1c-0.1,0-0.1,0-0.2-0.1l-2.8-2C20.3,32.7,20.3,32.4,20.4,32.3z M18.8,33.7c0.2-0.2,0.5-0.3,0.7-0.1l4.7,3.1
	c0.2,0.2,0.3,0.5,0.1,0.7c-0.1,0.2-0.3,0.2-0.4,0.2c-0.1,0-0.2,0-0.3-0.1l-4.7-3.1C18.7,34.3,18.6,34,18.8,33.7z M18,35.7
	c0.1-0.2,0.3-0.2,0.5-0.1l2.9,1.8c0.2,0.1,0.2,0.3,0.1,0.5C21.5,38,21.4,38,21.2,38c-0.1,0-0.1,0-0.2,0l-2.9-1.8
	C18,36.1,17.9,35.9,18,35.7z M16.9,37.5c0.1-0.2,0.3-0.2,0.5-0.1l3,1.7c0.2,0.1,0.2,0.3,0.1,0.5c-0.1,0.1-0.2,0.2-0.3,0.2
	c-0.1,0-0.1,0-0.2,0l-3-1.7C16.9,37.9,16.9,37.7,16.9,37.5z M15.9,39.3c0.1-0.2,0.3-0.2,0.4-0.1l3.1,1.6c0.2,0.1,0.2,0.3,0.1,0.4
	c-0.1,0.1-0.2,0.2-0.3,0.2c-0.1,0-0.1,0-0.1,0l-3.1-1.6C15.9,39.7,15.9,39.5,15.9,39.3z M15,41.2c0.1-0.2,0.3-0.2,0.4-0.2l3.1,1.4
	c0.2,0.1,0.2,0.3,0.2,0.4c-0.1,0.1-0.2,0.2-0.3,0.2c0,0-0.1,0-0.1,0l-3.1-1.4C15,41.6,14.9,41.4,15,41.2z M14,43.3
	c0.1-0.3,0.4-0.4,0.7-0.3l6.6,2.7c0.3,0.1,0.4,0.4,0.3,0.7c-0.1,0.2-0.3,0.3-0.5,0.3c-0.1,0-0.1,0-0.2,0L14.3,44
	C14,43.8,13.9,43.5,14,43.3z M13.8,45.3l3.2,1.2c0.2,0.1,0.3,0.3,0.2,0.4c0,0.1-0.2,0.2-0.3,0.2c0,0-0.1,0-0.1,0L13.6,46
	c-0.2-0.1-0.3-0.3-0.2-0.4C13.4,45.4,13.6,45.3,13.8,45.3z M12.7,47.5c0.1-0.2,0.2-0.3,0.4-0.2l3.3,1.1c0.2,0.1,0.3,0.2,0.2,0.4
	c0,0.1-0.2,0.2-0.3,0.2c0,0-0.1,0-0.1,0l-3.3-1.1C12.7,47.9,12.6,47.7,12.7,47.5z M12.1,49.5c0-0.2,0.2-0.3,0.4-0.2l3.3,0.9
	c0.2,0,0.3,0.2,0.2,0.4c0,0.1-0.2,0.2-0.3,0.2c0,0-0.1,0-0.1,0l-3.3-0.9C12.1,49.8,12,49.6,12.1,49.5z M11.5,51.5
	c0-0.2,0.2-0.3,0.4-0.2l3.3,0.8c0.2,0,0.3,0.2,0.2,0.4c0,0.2-0.2,0.3-0.3,0.3c0,0-0.1,0-0.1,0l-3.3-0.8
	C11.6,51.8,11.5,51.7,11.5,51.5z M11.3,53l5.5,1.1c0.3,0.1,0.5,0.3,0.4,0.6c0,0.3-0.3,0.4-0.5,0.4c0,0-0.1,0-0.1,0L11.1,54
	c-0.3-0.1-0.5-0.3-0.4-0.6C10.7,53.1,11,52.9,11.3,53z M14.8,56.2c0,0.2-0.2,0.3-0.3,0.3c0,0,0,0-0.1,0L11,55.9
	c-0.2,0-0.3-0.2-0.3-0.4c0-0.2,0.2-0.3,0.4-0.3l3.4,0.5C14.7,55.8,14.8,56,14.8,56.2z M10.8,57.3l3.4,0.4c0.2,0,0.3,0.2,0.3,0.4
	c0,0.2-0.2,0.3-0.3,0.3c0,0,0,0,0,0L10.7,58c-0.2,0-0.3-0.2-0.3-0.4S10.6,57.3,10.8,57.3z M10.6,59.4l3.4,0.3c0.2,0,0.3,0.3,0.3,0.5
	c0,0.2-0.2,0.4-0.3,0.4c0,0,0,0,0,0l-3.4-0.4c-0.2,0-0.3-0.2-0.3-0.4C10.2,59.5,10.4,59.3,10.6,59.4z M10.4,61.4l3.4,0.1
	c0.2,0,0.3,0.3,0.3,0.5c0,0.2-0.2,0.5-0.3,0.5c0,0,0,0,0,0l-3.4-0.3c-0.2,0-0.3-0.2-0.3-0.4C10.1,61.6,10.2,61.4,10.4,61.4z M9.6,64
	c0-0.4,0.3-0.5,0.7-0.5h9.4c0.4,0,0.7,0.1,0.7,0.5s-0.3,0.5-0.7,0.5h-9.4C9.9,64.5,9.6,64.4,9.6,64z M14.8,71.9
	c0,0.2-0.1,0.4-0.3,0.4l-3.6,0.6c0,0,0,0-0.1,0c-0.2,0-0.3-0.1-0.3-0.3c0-0.2,0.1-0.4,0.3-0.4l3.6-0.6
	C14.6,71.6,14.7,71.8,14.8,71.9z M9.9,66.3c0-0.2,0.1-0.3,0.3-0.3l3.6-0.1c0.2,0,0.3,0.2,0.3,0.3c0,0.2-0.1,0.2-0.3,0.2l-3.6,0
	c0,0,0,0,0,0C10.1,66.5,9.9,66.5,9.9,66.3z M10,68.3c0-0.2,0.1-0.3,0.3-0.3l3.6-0.2c0.2,0,0.3,0.1,0.4,0.3c0,0.2-0.1,0.2-0.3,0.2
	l-3.6,0.1c0,0,0,0,0,0C10.2,68.5,10.1,68.5,10,68.3z M10.3,70.5c0-0.2,0.1-0.3,0.3-0.4l3.6-0.4c0.2,0,0.3,0.1,0.4,0.3
	c0,0.2-0.1,0.3-0.3,0.4l-3.6,0.4c0,0,0,0,0,0C10.4,70.8,10.3,70.7,10.3,70.5z M11,75.2c-0.2,0-0.5-0.2-0.5-0.4
	c-0.1-0.3,0.1-0.6,0.4-0.6l5.7-1.1c0.3-0.1,0.6,0.1,0.6,0.4c0.1,0.3-0.1,0.6-0.4,0.6l-5.7,1.1C11,75.2,11,75.2,11,75.2z M11.7,76.9
	c-0.1,0-0.3-0.1-0.3-0.3c0-0.2,0.1-0.4,0.2-0.4l3.5-0.8c0.2,0,0.4,0.1,0.4,0.2c0,0.2-0.1,0.4-0.2,0.4L11.7,76.9
	C11.8,76.9,11.7,76.9,11.7,76.9z M12.3,78.9c-0.1,0-0.3-0.1-0.3-0.2c0-0.2,0.1-0.4,0.2-0.4l3.5-1c0.2,0,0.4,0.1,0.4,0.2
	c0,0.2-0.1,0.4-0.2,0.4L12.3,78.9C12.3,78.9,12.3,78.9,12.3,78.9z M12.9,80.9c-0.1,0-0.3-0.1-0.3-0.2c-0.1-0.2,0-0.4,0.2-0.4
	l3.4-1.1c0.2-0.1,0.4,0,0.4,0.2c0.1,0.2,0,0.4-0.2,0.4L13,80.9C12.9,80.9,12.9,80.9,12.9,80.9z M13.6,82.9c-0.1,0-0.3-0.1-0.3-0.2
	c-0.1-0.2,0-0.4,0.2-0.4l3.4-1.2c0.2-0.1,0.4,0,0.4,0.2c0.1,0.2,0,0.4-0.2,0.4l-3.4,1.2C13.6,82.8,13.6,82.9,13.6,82.9z M14.3,85.2
	c-0.2,0-0.4-0.1-0.5-0.3c-0.1-0.3,0-0.6,0.3-0.7l6.7-2.8c0.3-0.1,0.6,0,0.7,0.3c0.1,0.3,0,0.6-0.3,0.7l-6.7,2.8
	C14.5,85.2,14.4,85.2,14.3,85.2z M15.1,87.2c-0.1,0-0.2-0.1-0.3-0.2c-0.1-0.2,0-0.4,0.2-0.4l3.3-1.5c0.2-0.1,0.4,0,0.4,0.2
	s0,0.4-0.2,0.4l-3.3,1.5C15.2,87.2,15.2,87.2,15.1,87.2z M16.1,89c-0.1,0-0.2-0.1-0.3-0.2c-0.1-0.2,0-0.4,0.1-0.4l3.2-1.6
	c0.2-0.1,0.4,0,0.4,0.1c0.1,0.2,0,0.4-0.1,0.4L16.2,89C16.2,89,16.1,89,16.1,89z M17.1,90.9c-0.1,0-0.2-0.1-0.3-0.2
	c-0.1-0.2,0-0.4,0.1-0.5l3.1-1.8c0.2-0.1,0.4,0,0.5,0.1c0.1,0.2,0,0.4-0.1,0.5l-3.1,1.8C17.2,90.8,17.1,90.9,17.1,90.9z M18.2,92.6
	c-0.1,0-0.2-0.1-0.3-0.2c-0.1-0.2,0-0.4,0.1-0.5l3.1-1.9c0.2-0.1,0.4,0,0.5,0.1c0.1,0.2,0,0.4-0.1,0.5l-3.1,1.9
	C18.3,92.6,18.2,92.6,18.2,92.6z M19.3,94.6c-0.1,0.1-0.2,0.1-0.3,0.1c-0.2,0-0.3-0.1-0.4-0.2c-0.2-0.2-0.1-0.6,0.1-0.7l4.9-3.3
	c0.2-0.2,0.6-0.1,0.7,0.1c0.2,0.2,0.1,0.6-0.1,0.7L19.3,94.6z M20.5,96c-0.1,0-0.2,0-0.3-0.1c-0.1-0.1-0.1-0.4,0.1-0.5l2.9-2.1
	c0.1-0.1,0.4-0.1,0.5,0.1c0.1,0.1,0.1,0.4-0.1,0.5L20.7,96C20.7,96,20.6,96,20.5,96z M21.8,97.7c-0.1,0-0.2,0-0.3-0.1
	c-0.1-0.1-0.1-0.4,0.1-0.5l2.8-2.2c0.1-0.1,0.4-0.1,0.5,0.1c0.1,0.1,0.1,0.4-0.1,0.5L22,97.6C22,97.7,21.9,97.7,21.8,97.7z
	 M23.2,99.3c-0.1,0-0.2,0-0.3-0.1c-0.1-0.1-0.1-0.3,0-0.5l2.7-2.3c0.1-0.1,0.3-0.1,0.5,0c0.1,0.1,0.1,0.3,0,0.5l-2.7,2.3
	C23.3,99.2,23.2,99.3,23.2,99.3z M24.6,100.8c-0.1,0-0.2,0-0.2-0.1c-0.1-0.1-0.1-0.3,0-0.5l2.6-2.4c0.1-0.1,0.3-0.1,0.5,0
	c0.1,0.1,0.1,0.3,0,0.5l-2.6,2.4C24.7,100.8,24.6,100.8,24.6,100.8z M33.2,96l-6.5,6.5c-0.1,0.1-0.3,0.2-0.5,0.2s-0.3-0.1-0.5-0.2
	c-0.3-0.3-0.3-0.7,0-0.9l6.5-6.5c0.3-0.3,0.7-0.3,0.9,0C33.4,95.3,33.4,95.7,33.2,96z M34.8,23.5c-0.1,0-0.1,0.1-0.2,0.1
	c-0.1,0-0.2,0-0.3-0.1l-2.1-2.9c-0.1-0.1-0.1-0.4,0.1-0.5c0.1-0.1,0.4-0.1,0.5,0.1l2.1,2.9C35,23.2,34.9,23.4,34.8,23.5z M37.6,24.3
	c-0.1,0.1-0.2,0.1-0.3,0.1c-0.2,0-0.3-0.1-0.4-0.2l-3.2-4.8c-0.2-0.2-0.1-0.6,0.1-0.7c0.2-0.2,0.6-0.1,0.7,0.1l3.2,4.8
	C37.9,23.8,37.8,24.1,37.6,24.3z M38,21.5c-0.1,0-0.1,0-0.2,0c-0.1,0-0.2-0.1-0.3-0.2l-1.9-3.1c-0.1-0.2,0-0.4,0.1-0.5
	c0.2-0.1,0.4,0,0.5,0.1l1.9,3.1C38.2,21.2,38.2,21.4,38,21.5z M39.7,20.5c-0.1,0-0.1,0-0.2,0c-0.1,0-0.2-0.1-0.3-0.2l-1.8-3.1
	c-0.1-0.2,0-0.4,0.1-0.5c0.2-0.1,0.4,0,0.5,0.1l1.8,3.1C39.9,20.2,39.9,20.4,39.7,20.5z M41.4,19.7c0,0-0.1,0-0.1,0
	c-0.1,0-0.2-0.1-0.3-0.2l-1.6-3.2c-0.1-0.2,0-0.4,0.1-0.4c0.2-0.1,0.4,0,0.4,0.1l1.6,3.2C41.7,19.4,41.6,19.6,41.4,19.7z M43.2,18.8
	c0,0-0.1,0-0.1,0c-0.1,0-0.2-0.1-0.3-0.2l-1.5-3.3c-0.1-0.2,0-0.4,0.2-0.4c0.2-0.1,0.4,0,0.4,0.2l1.5,3.3
	C43.4,18.6,43.4,18.8,43.2,18.8z M46.5,21.4c-0.1,0-0.1,0-0.2,0c-0.2,0-0.4-0.1-0.5-0.3L43,14.4c-0.1-0.3,0-0.6,0.3-0.7
	c0.3-0.1,0.6,0,0.7,0.3l2.8,6.7C46.9,21,46.8,21.3,46.5,21.4z M46.9,16.9c0,0-0.1,0-0.1,0c-0.1,0-0.3-0.1-0.3-0.2l-1.2-3.4
	c-0.1-0.2,0-0.4,0.2-0.4c0.2-0.1,0.4,0,0.4,0.2l1.2,3.4C47.1,16.7,47,16.9,46.9,16.9z M48.7,16.3c0,0-0.1,0-0.1,0
	c-0.1,0-0.3-0.1-0.3-0.2l-1.1-3.4c-0.1-0.2,0-0.4,0.2-0.4c0.2-0.1,0.4,0,0.4,0.2l1.1,3.4C49,16.1,48.9,16.3,48.7,16.3z M50.6,15.8
	C50.6,15.8,50.5,15.8,50.6,15.8c-0.2,0-0.4-0.1-0.4-0.2l-1-3.4c0-0.2,0.1-0.4,0.2-0.4c0.2,0,0.4,0.1,0.4,0.2l1,3.4
	C50.9,15.6,50.8,15.8,50.6,15.8z M52.5,15.4C52.5,15.4,52.4,15.4,52.5,15.4c-0.2,0-0.4-0.1-0.4-0.2l-0.8-3.5c0-0.2,0.1-0.4,0.2-0.4
	c0.2,0,0.4,0.1,0.4,0.2l0.8,3.5C52.8,15.2,52.7,15.3,52.5,15.4z M54.8,17.1c0,0-0.1,0-0.1,0c-0.2,0-0.5-0.2-0.5-0.4L53.1,11
	c-0.1-0.3,0.1-0.6,0.4-0.6c0.3-0.1,0.6,0.1,0.6,0.4l1.1,5.7C55.3,16.8,55.1,17,54.8,17.1z M56.3,14.7C56.3,14.7,56.3,14.7,56.3,14.7
	c-0.2,0-0.4-0.1-0.4-0.3l-0.6-3.5c0-0.2,0.1-0.4,0.3-0.4c0.2,0,0.4,0.1,0.4,0.3l0.6,3.5C56.6,14.5,56.5,14.7,56.3,14.7z M58.3,14.5
	C58.3,14.5,58.3,14.5,58.3,14.5c-0.2,0-0.3-0.1-0.4-0.3l-0.4-3.6c0-0.2,0.1-0.3,0.3-0.4c0.2,0,0.3,0.1,0.4,0.3l0.4,3.6
	C58.6,14.3,58.5,14.5,58.3,14.5z M60.2,14.5C60.2,14.5,60.2,14.5,60.2,14.5c-0.2,0-0.3-0.2-0.4-0.4l-0.3-3.6c0-0.2,0.1-0.4,0.3-0.4
	c0.2,0,0.3,0.1,0.4,0.3l0.3,3.6C60.5,14.2,60.4,14.5,60.2,14.5z M62.2,14.5C62.2,14.5,62.2,14.5,62.2,14.5c-0.2,0-0.3-0.2-0.3-0.4
	l-0.1-3.6c0-0.2,0.1-0.4,0.3-0.4c0.2,0,0.3,0.1,0.3,0.3l0.1,3.7C62.5,14.2,62.4,14.5,62.2,14.5z M64.8,19.6c0,0.4-0.1,0.7-0.5,0.7
	s-0.5-0.3-0.5-0.7v-9.4c0-0.4,0.1-0.7,0.5-0.7s0.5,0.3,0.5,0.7V19.6z M66.5,13.4c0,0.2-0.2,0.1-0.3,0.1c0,0,0,0,0,0
	c-0.2,0-0.3,0-0.3-0.2l0.1-3.2c0-0.2,0.2-0.3,0.3-0.3c0.2,0,0.3,0.1,0.3,0.3L66.5,13.4z M68.5,14c0,0.2-0.2,0.5-0.3,0.5c0,0,0,0,0,0
	c-0.2,0-0.3-0.4-0.3-0.6l0.3-3.4c0-0.2,0.2-0.4,0.4-0.4c0.2,0,0.3,0.3,0.3,0.4L68.5,14z M70.4,14c0,0.2-0.2,0.3-0.3,0.3c0,0,0,0,0,0
	c-0.2,0-0.3-0.2-0.3-0.4l0.4-3.3c0-0.2,0.2-0.3,0.4-0.3c0.2,0,0.3,0.2,0.3,0.4L70.4,14z M72.4,14.3c0,0.2-0.2,0.3-0.3,0.3
	c0,0,0,0-0.1,0c-0.2,0-0.3-0.2-0.3-0.4l0.5-3.3c0-0.2,0.2-0.3,0.4-0.3c0.2,0,0.3,0.2,0.3,0.4L72.4,14.3z M74.1,16.6
	c0,0.3-0.3,0.4-0.5,0.4c0,0-0.1,0-0.1,0c-0.3-0.1-0.5-0.3-0.4-0.6l1.1-5.3c0.1-0.3,0.3-0.5,0.6-0.4c0.3,0.1,0.5,0.3,0.4,0.6
	L74.1,16.6z M77,12l-0.8,3.2c0,0.2-0.2,0.3-0.3,0.3c0,0-0.1,0-0.1,0c-0.2,0-0.3-0.2-0.2-0.4l0.8-3.2c0-0.2,0.2-0.3,0.4-0.2
	C77,11.6,77.1,11.8,77,12z M79,12.6l-0.9,3.2c0,0.1-0.2,0.2-0.3,0.2c0,0-0.1,0-0.1,0c-0.2,0-0.3-0.2-0.2-0.4l0.9-3.2
	c0-0.2,0.2-0.3,0.4-0.2C79,12.2,79.1,12.4,79,12.6z M81.1,13.3l-1,3.2c0,0.1-0.2,0.2-0.3,0.2c0,0-0.1,0-0.1,0
	c-0.2-0.1-0.3-0.2-0.2-0.4l1-3.2c0.1-0.2,0.2-0.3,0.4-0.2C81,12.9,81.1,13.1,81.1,13.3z M81.3,16.9l1.2-3.1c0.1-0.2,0.3-0.3,0.4-0.2
	c0.2,0.1,0.3,0.3,0.2,0.4l-1.2,3.1c0,0.1-0.2,0.2-0.3,0.2c0,0-0.1,0-0.1,0C81.3,17.3,81.2,17.1,81.3,16.9z M82,21.5
	c-0.1,0-0.1,0-0.2,0c-0.3-0.1-0.4-0.4-0.3-0.7l2.7-6.5c0.1-0.3,0.4-0.4,0.7-0.3c0.3,0.1,0.4,0.4,0.3,0.7l-2.7,6.5
	C82.4,21.3,82.2,21.5,82,21.5z M85.2,18.5c0,0-0.1,0-0.1,0c-0.2-0.1-0.2-0.3-0.2-0.4l1.4-3c0.1-0.2,0.3-0.2,0.4-0.2
	c0.2,0.1,0.2,0.3,0.2,0.4l-1.4,3C85.5,18.4,85.4,18.5,85.2,18.5z M87,19.4c-0.1,0-0.1,0-0.1,0c-0.2-0.1-0.2-0.3-0.1-0.4l1.5-3
	c0.1-0.2,0.3-0.2,0.4-0.1c0.2,0.1,0.2,0.3,0.1,0.4l-1.5,3C87.3,19.3,87.1,19.4,87,19.4z M88.8,20.4c-0.1,0-0.1,0-0.2,0
	c-0.2-0.1-0.2-0.3-0.1-0.5l1.6-2.9c0.1-0.2,0.3-0.2,0.5-0.1c0.2,0.1,0.2,0.3,0.1,0.5l-1.6,2.9C89,20.3,88.9,20.4,88.8,20.4z
	 M90.3,21.4c-0.2-0.1-0.2-0.3-0.1-0.5l1.7-2.9c0.1-0.2,0.3-0.2,0.5-0.1c0.2,0.1,0.2,0.3,0.1,0.5l-1.7,2.9c-0.1,0.1-0.2,0.2-0.3,0.2
	C90.4,21.4,90.4,21.4,90.3,21.4z M91.1,24.3c-0.1,0-0.2,0-0.3-0.1c-0.2-0.2-0.3-0.5-0.1-0.7l3-4.5c0.2-0.2,0.5-0.3,0.7-0.1
	c0.2,0.2,0.3,0.5,0.1,0.7l-3,4.5C91.4,24.2,91.2,24.3,91.1,24.3z M93.8,23.7c-0.1,0-0.1,0-0.2-0.1c-0.1-0.1-0.2-0.3-0.1-0.5l2-2.7
	c0.1-0.1,0.3-0.2,0.5-0.1c0.1,0.1,0.2,0.3,0.1,0.5l-2,2.7C94,23.7,93.9,23.7,93.8,23.7z M102.7,102.6c-0.1,0.1-0.3,0.2-0.5,0.2
	s-0.3-0.1-0.5-0.2L95.2,96c-0.3-0.3-0.3-0.7,0-0.9c0.3-0.3,0.7-0.3,0.9,0l6.6,6.6C102.9,101.9,102.9,102.3,102.7,102.6z M103.9,101
	c-0.1,0.1-0.2,0.1-0.2,0.1c-0.1,0-0.2,0-0.2-0.1l-2.5-2.3c-0.1-0.1-0.1-0.3,0-0.5c0.1-0.1,0.3-0.1,0.5,0l2.5,2.3
	C104,100.7,104,100.9,103.9,101z M105.3,99.4c-0.1,0.1-0.2,0.1-0.3,0.1c-0.1,0-0.2,0-0.2-0.1l-2.6-2.2c-0.1-0.1-0.2-0.3,0-0.5
	c0.1-0.1,0.3-0.2,0.5,0l2.6,2.2C105.4,99,105.4,99.2,105.3,99.4z M106.7,97.7c-0.1,0.1-0.2,0.1-0.3,0.1c-0.1,0-0.1,0-0.2-0.1
	l-2.7-2.1c-0.1-0.1-0.2-0.3-0.1-0.5c0.1-0.1,0.3-0.2,0.5-0.1l2.7,2.1C106.8,97.3,106.8,97.5,106.7,97.7z M108,95.9
	c-0.1,0.1-0.2,0.1-0.3,0.1c-0.1,0-0.1,0-0.2-0.1l-2.8-2c-0.1-0.1-0.2-0.3-0.1-0.5c0.1-0.1,0.3-0.2,0.5-0.1l2.8,2
	C108,95.6,108.1,95.8,108,95.9z M109.5,94.4c-0.1,0.2-0.3,0.2-0.4,0.2c-0.1,0-0.2,0-0.3-0.1l-4.7-3.1c-0.2-0.2-0.3-0.5-0.1-0.7
	c0.2-0.2,0.5-0.3,0.7-0.1l4.7,3.1C109.6,93.8,109.7,94.1,109.5,94.4z M110.3,92.3c-0.1,0.1-0.2,0.2-0.3,0.2c-0.1,0-0.1,0-0.2,0
	l-2.9-1.8c-0.2-0.1-0.2-0.3-0.1-0.5c0.1-0.2,0.3-0.2,0.5-0.1l2.9,1.8C110.4,91.9,110.4,92.1,110.3,92.3z M111.4,90.4
	c-0.1,0.1-0.2,0.2-0.3,0.2c-0.1,0-0.1,0-0.2,0l-3-1.7c-0.2-0.1-0.2-0.3-0.1-0.5c0.1-0.2,0.3-0.2,0.5-0.1l3,1.7
	C111.4,90,111.5,90.2,111.4,90.4z M112.4,88.5c-0.1,0.1-0.2,0.2-0.3,0.2c-0.1,0-0.1,0-0.1,0l-3.1-1.6c-0.2-0.1-0.2-0.3-0.1-0.4
	c0.1-0.2,0.3-0.2,0.4-0.1l3.1,1.6C112.4,88.1,112.5,88.3,112.4,88.5z M113.3,86.5c-0.1,0.1-0.2,0.2-0.3,0.2c0,0-0.1,0-0.1,0
	l-3.1-1.4c-0.2-0.1-0.2-0.3-0.2-0.4s0.3-0.2,0.4-0.2l3.1,1.4C113.3,86.1,113.4,86.3,113.3,86.5z M114.4,84.8
	c-0.1,0.2-0.3,0.3-0.5,0.3c-0.1,0-0.1,0-0.2,0l-6.6-2.7c-0.3-0.1-0.4-0.4-0.3-0.7c0.1-0.3,0.4-0.4,0.7-0.3l6.6,2.7
	C114.3,84.3,114.5,84.6,114.4,84.8z M114.6,83.2c0,0-0.1,0-0.1,0l-3.2-1.2c-0.2-0.1-0.3-0.3-0.2-0.4c0.1-0.2,0.3-0.3,0.4-0.2
	l3.2,1.2c0.2,0.1,0.3,0.3,0.2,0.4C114.9,83.1,114.7,83.2,114.6,83.2z M115.6,80.9c0,0.1-0.2,0.2-0.3,0.2c0,0-0.1,0-0.1,0l-3.3-1.1
	c-0.2-0.1-0.3-0.2-0.2-0.4c0.1-0.2,0.2-0.3,0.4-0.2l3.3,1.1C115.6,80.6,115.7,80.8,115.6,80.9z M116.2,78.9c0,0.1-0.2,0.2-0.3,0.2
	c0,0-0.1,0-0.1,0l-3.3-0.9c-0.2,0-0.3-0.2-0.2-0.4c0.1-0.2,0.2-0.3,0.4-0.2l3.3,0.9C116.2,78.5,116.3,78.7,116.2,78.9z M116.8,76.7
	c0,0.2-0.2,0.3-0.3,0.3c0,0-0.1,0-0.1,0l-3.4-0.8c-0.2,0-0.3-0.2-0.2-0.4c0-0.2,0.2-0.3,0.4-0.2l3.4,0.8
	C116.7,76.4,116.8,76.6,116.8,76.7z M117.1,75.1c0,0-0.1,0-0.1,0l-5.5-1.1c-0.3-0.1-0.5-0.3-0.4-0.6c0.1-0.3,0.3-0.5,0.6-0.4
	l5.5,1.1c0.3,0.1,0.5,0.3,0.4,0.6C117.6,75,117.4,75.1,117.1,75.1z M113.6,71.8c0-0.2,0.2-0.3,0.4-0.3l3.4,0.5
	c0.2,0,0.3,0.2,0.3,0.4c0,0.2-0.2,0.3-0.3,0.3c0,0,0,0-0.1,0l-3.4-0.5C113.7,72.2,113.5,72,113.6,71.8z M117.6,70.6
	C117.6,70.6,117.6,70.6,117.6,70.6l-3.5-0.4c-0.2,0-0.3-0.2-0.3-0.4s0.2-0.3,0.4-0.3l3.4,0.4c0.2,0,0.3,0.2,0.3,0.4
	C117.9,70.5,117.8,70.6,117.6,70.6z M117.8,68.5C117.8,68.5,117.8,68.5,117.8,68.5l-3.5-0.3c-0.2,0-0.3-0.2-0.3-0.4s0.2-0.3,0.4-0.3
	l3.4,0.3c0.2,0,0.3,0.2,0.3,0.4C118.1,68.3,118,68.5,117.8,68.5z M117.9,66.5C117.9,66.5,117.9,66.5,117.9,66.5l-3.5-0.2
	c-0.2,0-0.3-0.2-0.3-0.4c0-0.2,0.2-0.3,0.3-0.3l3.4,0.1c0.2,0,0.3,0.3,0.3,0.4C118.2,66.3,118.1,66.5,117.9,66.5z M118.1,64.5h-9.4
	c-0.4,0-0.7-0.1-0.7-0.5s0.3-0.5,0.7-0.5h9.4c0.4,0,0.7,0.1,0.7,0.5S118.5,64.5,118.1,64.5z"/>
</svg>
