<?xml version="1.0" encoding="utf-8"?>
<!-- Generator: Adobe Illustrator 19.1.0, SVG Export Plug-In . SVG Version: 6.00 Build 0)  -->
<svg version="1.1" id="Layer_1" xmlns="http://www.w3.org/2000/svg" xmlns:xlink="http://www.w3.org/1999/xlink" x="0px" y="0px"
	 viewBox="0 0 283.5 283.5" style="enable-background:new 0 0 283.5 283.5;" xml:space="preserve">
<style type="text/css">
	.Half_x0020_Highlight_x0020_Blue{fill:url(#SVGID_1_);stroke:#FFFFFF;stroke-width:0.25;stroke-miterlimit:1;}
	.st0{fill:none;stroke:#000000;stroke-miterlimit:10;}
	.st1{fill:#FFFFFF;}
	.st2{fill:#060606;}
	.st3{opacity:0.3;fill:#060606;}
	.st4{fill:#30B454;}
	.st5{opacity:0.5;}
</style>
<linearGradient id="SVGID_1_" gradientUnits="userSpaceOnUse" x1="-311.81" y1="-1601" x2="-311.81" y2="-1602">
	<stop  offset="0" style="stop-color:#2D409A"/>
	<stop  offset="0.618" style="stop-color:#2A3282"/>
	<stop  offset="0.6292" style="stop-color:#2A3592"/>
	<stop  offset="0.9831" style="stop-color:#0063A0"/>
</linearGradient>
<g id="RSS_-_Grey">
	<g id="Reload_-_Orange">
		<g id="Hand">
		</g>
	</g>
</g>
<g id="Info">
	<g id="Delete">
	</g>
	<g id="Check">
		<g id="Help">
			<g id="Add_Favorite">
				<g id="Favorite">
					<g id="Photo">
						<g id="Zoom_In">
						</g>
					</g>
				</g>
			</g>
		</g>
	</g>
</g>
<path class="st1" d="M239.7,101c0-16.6-30.6-48.9-43-51.9c-6.5-1.5-13.4,2.3-14.9,8.8c-1.5,6.5,2,12.8,8.5,14.3
	c6,2.8,24.1,23,25.5,28.8c0,2.5-2.1,5.8-4.1,8.9c-2.7,4.1-5.7,8.8-5.7,14.7v63.9c0,3-3.7,3.3-5.3,3.3c-0.6,0-5.5-0.1-5.5-3.3v-42.8
	c0-11.6-7.8-23.8-28.6-25.9V67.6c0-13.8-11.3-25.1-25.1-25.1H85.4c-13.8,0-25.1,11.3-25.1,25.1v158.9H48.5c-2.6,0-4.8,2.1-4.8,4.8v5
	c0,2.6,2.1,4.8,4.8,4.8h129.9c2.6,0,4.8-2.1,4.8-4.8v-5c0-2.6-2.1-4.8-4.8-4.8h-11.8V144c2.8,0.5,4.3,1.3,4.6,1.7v42.8
	c0,15.6,12.7,27.4,29.6,27.4c16.7,0,29.3-11.8,29.3-27.4l-0.3-62.1c0.4-1.1,1.3-2.2,2.1-3.5C235,118,239.7,110.6,239.7,101z
	 M155.3,125.5H71.5V56.8h83.8V125.5z"/>
</svg>
