<?xml version="1.0" encoding="utf-8"?>
<!-- Generator: Adobe Illustrator 19.1.0, SVG Export Plug-In . SVG Version: 6.00 Build 0)  -->
<svg version="1.1" id="Layer_1" xmlns="http://www.w3.org/2000/svg" xmlns:xlink="http://www.w3.org/1999/xlink" x="0px" y="0px"
	 viewBox="0 0 283.5 283.5" style="enable-background:new 0 0 283.5 283.5;" xml:space="preserve">
<style type="text/css">
	.Half_x0020_Highlight_x0020_Blue{fill:url(#SVGID_1_);stroke:#FFFFFF;stroke-width:0.25;stroke-miterlimit:1;}
	.st0{fill:none;stroke:#000000;stroke-miterlimit:10;}
	.st1{fill:#FFFFFF;}
	.st2{fill:#060606;}
	.st3{opacity:0.3;fill:#060606;}
	.st4{fill:#30B454;}
	.st5{opacity:0.5;}
</style>
<linearGradient id="SVGID_1_" gradientUnits="userSpaceOnUse" x1="0" y1="0" x2="4.489659e-11" y2="-1">
	<stop  offset="0" style="stop-color:#2D409A"/>
	<stop  offset="0.618" style="stop-color:#2A3282"/>
	<stop  offset="0.6292" style="stop-color:#2A3592"/>
	<stop  offset="0.9831" style="stop-color:#0063A0"/>
</linearGradient>
<g id="RSS_-_Grey">
	<g id="Reload_-_Orange">
		<g id="Hand">
		</g>
	</g>
</g>
<g id="Info">
	<g id="Delete">
	</g>
	<g id="Check">
		<g id="Help">
			<g id="Add_Favorite">
				<g id="Favorite">
					<g id="Photo">
						<g id="Zoom_In">
						</g>
					</g>
				</g>
			</g>
		</g>
	</g>
</g>
<g>
	<g>
		<path class="st1" d="M195.9,77.4c0-29.9-24.2-54.1-54.1-54.1S87.6,47.5,87.6,77.4c0,7.9,1.7,15.3,4.7,22.1h0l49.5,131.9
			l49.5-131.9h0C194.2,92.7,195.9,85.3,195.9,77.4z M141.7,109.1c-17.5,0-31.7-14.2-31.7-31.7s14.2-31.7,31.7-31.7
			s31.7,14.2,31.7,31.7S159.2,109.1,141.7,109.1z"/>
	</g>
	<path class="st1" d="M141.7,215.3c-30,0-54.3,10.1-54.3,22.5s24.3,22.5,54.3,22.5s54.3-10.1,54.3-22.5S171.7,215.3,141.7,215.3z
		 M141.7,254.4c-24,0-43.4-8-43.4-18s19.4-18,43.4-18s43.4,8,43.4,18S165.7,254.4,141.7,254.4z"/>
</g>
</svg>
