<?xml version="1.0" encoding="utf-8"?>
<!-- Generator: Adobe Illustrator 19.1.0, SVG Export Plug-In . SVG Version: 6.00 Build 0)  -->
<svg version="1.1" id="Layer_1" xmlns="http://www.w3.org/2000/svg" xmlns:xlink="http://www.w3.org/1999/xlink" x="0px" y="0px"
	 viewBox="0 0 283.5 283.5" style="enable-background:new 0 0 283.5 283.5;" xml:space="preserve">
<style type="text/css">
	.st0{fill:none;stroke:#060606;stroke-width:6;stroke-miterlimit:10;}
	.st1{fill:none;stroke:#000000;stroke-width:5;}
	.st2{fill:#010101;}
	.st3{fill:#FFFFFF;}
	.st4{fill:#F1F2F2;}
	.st5{fill:#5CBE84;}
</style>
<path class="st3" d="M203.9,133.9c0-10.5-19.4-31-27.3-32.9c-4.1-1-8.5,1.5-9.5,5.6c-1,4.1,1.3,8.1,5.4,9.1
	c3.8,1.8,15.3,14.6,16.2,18.3c0,1.6-1.3,3.7-2.6,5.7c-1.7,2.6-3.6,5.6-3.6,9.3v40.5c0,1.9-2.4,2.1-3.4,2.1c-0.4,0-3.5-0.1-3.5-2.1
	v-27.2c0-7.3-4.9-15.1-18.1-16.4v-33.2c0-8.7-7.2-15.9-15.9-15.9H106c-8.7,0-15.9,7.2-15.9,15.9v100.8h-7.5c-1.7,0-3,1.4-3,3v3.2
	c0,1.7,1.4,3,3,3h82.4c1.7,0,3-1.4,3-3v-3.2c0-1.7-1.4-3-3-3h-7.5v-52.3c1.8,0.3,2.7,0.8,2.9,1.1v27.2c0,9.9,8.1,17.4,18.8,17.4
	c10.6,0,18.6-7.5,18.6-17.4l-0.2-39.4c0.3-0.7,0.8-1.4,1.3-2.2C200.9,144.7,203.9,140,203.9,133.9z M150.3,149.4H97.2v-43.6h53.1
	V149.4z"/>
<g>
	<path class="st4" d="M52.1,244.6c-0.1-0.2-0.3-0.5-0.5-0.7c-15.2-19.9-23.2-43.7-23.2-68.8c0-62.5,50.9-113.4,113.4-113.4
		c62.5,0,113.4,50.9,113.4,113.4c0,25.1-8,48.9-23.2,68.8c-0.2,0.2-0.3,0.4-0.5,0.7h27.7c12.5-20.9,19-44.7,19-69.4
		c0-75.2-61.2-136.4-136.4-136.4S5.4,100,5.4,175.2c0,24.8,6.5,48.5,19,69.4H52.1z"/>
	<path class="st5" d="M52.1,244.6c-0.1-0.2-0.3-0.5-0.5-0.7c-15.2-19.9-23.2-43.7-23.2-68.8c0-62.5,50.9-113.4,113.4-113.4
		c9,0,18,1.1,26.7,3.2c6.2,1.5,12.4-2.3,13.9-8.5s-2.3-12.4-8.5-13.9c-10.4-2.5-21.2-3.8-32.1-3.8C66.5,38.8,5.4,100,5.4,175.2
		c0,24.8,6.5,48.5,19,69.4H52.1z"/>
</g>
</svg>
