<?xml version="1.0" encoding="utf-8"?>
<!-- Generator: Adobe Illustrator 19.1.0, SVG Export Plug-In . SVG Version: 6.00 Build 0)  -->
<svg version="1.1" id="Layer_1" xmlns="http://www.w3.org/2000/svg" xmlns:xlink="http://www.w3.org/1999/xlink" x="0px" y="0px"
	 viewBox="0 0 283.5 283.5" style="enable-background:new 0 0 283.5 283.5;" xml:space="preserve">
<style type="text/css">
	.Half_x0020_Highlight_x0020_Blue{fill:url(#SVGID_1_);stroke:#FFFFFF;stroke-width:0.25;stroke-miterlimit:1;}
	.st0{fill:none;stroke:#000000;stroke-miterlimit:10;}
	.st1{fill:#FFFFFF;}
	.st2{fill:#060606;}
	.st3{opacity:0.3;fill:#060606;}
	.st4{fill:#30B454;}
	.st5{opacity:0.5;}
</style>
<linearGradient id="SVGID_1_" gradientUnits="userSpaceOnUse" x1="-1247.24" y1="-615" x2="-1247.24" y2="-616">
	<stop  offset="0" style="stop-color:#2D409A"/>
	<stop  offset="0.618" style="stop-color:#2A3282"/>
	<stop  offset="0.6292" style="stop-color:#2A3592"/>
	<stop  offset="0.9831" style="stop-color:#0063A0"/>
</linearGradient>
<g id="RSS_-_Grey">
	<g id="Reload_-_Orange">
		<g>
			<path class="st1" d="M246,103.1H37.5c-3.8,0-7,3.2-7,7v110.7c0,3.8,3.2,7,7,7H246c3.8,0,7-3.2,7-7V110.1
				C253,106.3,249.8,103.1,246,103.1z M66.7,208.5c-11,0-20-9-20-20c0-11,9-20,20-20s20,9,20,20C86.7,199.5,77.8,208.5,66.7,208.5z
				 M236.7,206.5c0,1.1-0.9,2-2,2H102.3c-1.1,0-2-0.9-2-2v-1c0-1.1,0.9-2,2-2h132.5c1.1,0,2,0.9,2,2V206.5z M236.7,194.8
				c0,1.1-0.9,2-2,2H102.3c-1.1,0-2-0.9-2-2v-1c0-1.1,0.9-2,2-2h132.5c1.1,0,2,0.9,2,2V194.8z M236.7,183.1c0,1.1-0.9,2-2,2H102.3
				c-1.1,0-2-0.9-2-2v-1c0-1.1,0.9-2,2-2h132.5c1.1,0,2,0.9,2,2V183.1z M236.7,171.5c0,1.1-0.9,2-2,2H102.3c-1.1,0-2-0.9-2-2v-1
				c0-1.1,0.9-2,2-2h132.5c1.1,0,2,0.9,2,2V171.5z M236.7,148.5c0,3.8-3.1,7-7,7h-176c-3.8,0-7-3.2-7-7V126c0-3.9,3.2-7,7-7h176
				c3.9,0,7,3.1,7,7V148.5z"/>
			<path class="st1" d="M73.3,28.7c-9.5,0-17.2,7.7-17.2,17.2c0,9.5,7.7,17.2,17.2,17.2s17.2-7.7,17.2-17.2
				C90.5,36.4,82.8,28.7,73.3,28.7z M73.3,57.7c-6.5,0-11.8-5.3-11.8-11.8c0-6.5,5.3-11.8,11.8-11.8s11.8,5.3,11.8,11.8
				C85.1,52.4,79.8,57.7,73.3,57.7z"/>
			<path class="st1" d="M85.9,47.7c-0.3,2.1-1.1,4-2.3,5.7l119,48.1H219L85.9,47.7z"/>
		</g>
		<g id="Hand">
		</g>
	</g>
</g>
<g id="Info">
	<g id="Delete">
	</g>
	<g id="Check">
		<g id="Help">
			<g id="Add_Favorite">
				<g id="Favorite">
					<g id="Photo">
						<g id="Zoom_In">
						</g>
					</g>
				</g>
			</g>
		</g>
	</g>
</g>
</svg>
