<?xml version="1.0" encoding="utf-8"?>
<!-- Generator: Adobe Illustrator 19.1.0, SVG Export Plug-In . SVG Version: 6.00 Build 0)  -->
<svg version="1.1" id="Layer_1" xmlns="http://www.w3.org/2000/svg" xmlns:xlink="http://www.w3.org/1999/xlink" x="0px" y="0px"
	 viewBox="0 0 283.5 283.5" style="enable-background:new 0 0 283.5 283.5;" xml:space="preserve">
<style type="text/css">
	.Half_x0020_Highlight_x0020_Blue{fill:url(#SVGID_1_);stroke:#FFFFFF;stroke-width:0.25;stroke-miterlimit:1;}
	.st0{fill:none;stroke:#000000;stroke-miterlimit:10;}
	.st1{fill:#FFFFFF;}
	.st2{fill:#060606;}
	.st3{opacity:0.3;fill:#060606;}
	.st4{fill:#30B454;}
	.st5{opacity:0.5;}
</style>
<linearGradient id="SVGID_1_" gradientUnits="userSpaceOnUse" x1="-2543.9971" y1="-297" x2="-2543.9971" y2="-298">
	<stop  offset="0" style="stop-color:#2D409A"/>
	<stop  offset="0.618" style="stop-color:#2A3282"/>
	<stop  offset="0.6292" style="stop-color:#2A3592"/>
	<stop  offset="0.9831" style="stop-color:#0063A0"/>
</linearGradient>
<g>
	<path class="st1" d="M164,161.7c-0.6,0-1.1-0.1-1.7-0.3c-2.6-0.9-4-3.8-3-6.4c1.8-5,2.3-10.4,1.5-15.7c-0.5-3.6-1.7-7.1-3.3-10.3
		c-1.3-2.4-0.3-5.5,2.1-6.7c2.4-1.3,5.5-0.3,6.7,2.1c2.2,4.2,3.7,8.7,4.4,13.4c1,6.9,0.4,14-2,20.6C167.9,160.4,166,161.7,164,161.7
		z"/>
	<path class="st1" d="M187.7,171.8c-0.6,0-1.1-0.1-1.7-0.3c-2.6-0.9-4-3.8-3-6.4c3.2-8.9,4.1-18.5,2.7-27.9
		c-1-6.4-2.9-12.5-5.9-18.2c-1.3-2.4-0.3-5.5,2.1-6.7c2.4-1.3,5.5-0.3,6.7,2.1c3.5,6.7,5.8,13.8,6.9,21.3c1.7,11,0.6,22.3-3.1,32.7
		C191.7,170.5,189.7,171.8,187.7,171.8z"/>
	<path class="st1" d="M207.8,181.2c-0.7,0-1.3-0.1-2-0.4c-2.5-1.1-3.7-4-2.6-6.6c5.3-12.2,7.5-25.6,6.4-38.9
		c-0.8-9.1-3-17.8-6.6-26.1c-1.1-2.5,0-5.5,2.6-6.6s5.5,0,6.6,2.6c4.1,9.3,6.6,19.1,7.4,29.3c1.2,14.9-1.2,30.1-7.2,43.7
		C211.6,180.1,209.7,181.2,207.8,181.2z"/>
	<path class="st1" d="M132.4,95c-6.1,7.3-39.4,25.3-62.1,25.3v0c-0.9,0-1.7,0.8-1.7,1.7v39.5c0,0.9,0.8,1.7,1.7,1.7v0
		c22.7,0,56,18,62.1,25.3c6.1,7.3,13.4,4.9,13.4,0c0-4.5,0-41.1,0-46.4c0,0,0-0.3,0-0.7c0-5.3,0-41.9,0-46.4
		C145.8,90.1,138.5,87.7,132.4,95z"/>
</g>
<g id="RSS_-_Grey">
	<g id="Reload_-_Orange">
		<g id="Hand">
		</g>
	</g>
</g>
<g id="Info">
	<g id="Delete">
	</g>
	<g id="Check">
		<g id="Help">
			<g id="Add_Favorite">
				<g id="Favorite">
					<g id="Photo">
						<g id="Zoom_In">
						</g>
					</g>
				</g>
			</g>
		</g>
	</g>
</g>
</svg>
