<?xml version="1.0" encoding="utf-8"?>
<!-- Generator: Adobe Illustrator 19.1.0, SVG Export Plug-In . SVG Version: 6.00 Build 0)  -->
<svg version="1.1" id="Layer_1" xmlns="http://www.w3.org/2000/svg" xmlns:xlink="http://www.w3.org/1999/xlink" x="0px" y="0px"
	 viewBox="0 0 283.5 283.5" style="enable-background:new 0 0 283.5 283.5;" xml:space="preserve">
<style type="text/css">
	.Half_x0020_Highlight_x0020_Blue{fill:url(#SVGID_1_);stroke:#FFFFFF;stroke-width:0.25;stroke-miterlimit:1;}
	.st0{fill:none;stroke:#000000;stroke-miterlimit:10;}
	.st1{fill:#FFFFFF;}
	.st2{fill:#060606;}
	.st3{opacity:0.3;fill:#060606;}
	.st4{fill:#30B454;}
	.st5{opacity:0.5;}
</style>
<linearGradient id="SVGID_1_" gradientUnits="userSpaceOnUse" x1="0" y1="-1927" x2="4.489659e-11" y2="-1928">
	<stop  offset="0" style="stop-color:#2D409A"/>
	<stop  offset="0.618" style="stop-color:#2A3282"/>
	<stop  offset="0.6292" style="stop-color:#2A3592"/>
	<stop  offset="0.9831" style="stop-color:#0063A0"/>
</linearGradient>
<g id="RSS_-_Grey">
	<g id="Reload_-_Orange">
		<g id="Hand">
		</g>
	</g>
</g>
<g id="Info">
	<g id="Delete">
	</g>
	<g id="Check">
		<g id="Help">
			<g id="Add_Favorite">
				<g id="Favorite">
					<g id="Photo">
						<g id="Zoom_In">
						</g>
					</g>
				</g>
			</g>
		</g>
	</g>
</g>
<g>
	<path class="st1" d="M144.9,52.2c-18.2,0-33.1,14.9-33.1,33.1v55.9c0,18.2,14.9,33.1,33.1,33.1c18.2,0,33.1-14.9,33.1-33.1V85.3
		C178,67.1,163.1,52.2,144.9,52.2z M157,143c0,6.7-5.5,12.1-12.1,12.1c-6.7,0-12.1-5.5-12.1-12.1V83.6c0-6.7,5.5-12.1,12.1-12.1
		c6.7,0,12.1,5.5,12.1,12.1V143z"/>
	<path class="st1" d="M217.3,148.9h-21.4c-1.3,27.1-23.5,48.8-51,48.8c-27.4,0-49.7-21.6-51-48.8H72.5c1.2,34.9,27,63.5,60.6,69
		c-0.1,0.6-0.4,1.2-0.4,1.9v21.1c0,5.4,4.4,9.7,9.7,9.7h7c5.4,0,9.7-4.4,9.7-9.7v-21.1c0-0.8-0.3-1.5-0.4-2.2
		C191.4,211.3,216.1,183.1,217.3,148.9z"/>
</g>
</svg>
