<?xml version="1.0" encoding="utf-8"?>
<!-- Generator: Adobe Illustrator 19.1.0, SVG Export Plug-In . SVG Version: 6.00 Build 0)  -->
<svg version="1.1" id="Layer_1" xmlns="http://www.w3.org/2000/svg" xmlns:xlink="http://www.w3.org/1999/xlink" x="0px" y="0px"
	 viewBox="0 0 283.5 283.5" style="enable-background:new 0 0 283.5 283.5;" xml:space="preserve">
<style type="text/css">
	.Half_x0020_Highlight_x0020_Blue{fill:url(#SVGID_1_);stroke:#FFFFFF;stroke-width:0.25;stroke-miterlimit:1;}
	.st0{fill:none;stroke:#000000;stroke-miterlimit:10;}
	.st1{fill:#FFFFFF;}
	.st2{fill:#060606;}
	.st3{opacity:0.3;fill:#060606;}
	.st4{fill:#30B454;}
	.st5{opacity:0.5;}
</style>
<linearGradient id="SVGID_1_" gradientUnits="userSpaceOnUse" x1="-1568.8995" y1="-2273.8633" x2="-1568.8995" y2="-2274.8633">
	<stop  offset="0" style="stop-color:#2D409A"/>
	<stop  offset="0.618" style="stop-color:#2A3282"/>
	<stop  offset="0.6292" style="stop-color:#2A3592"/>
	<stop  offset="0.9831" style="stop-color:#0063A0"/>
</linearGradient>
<g id="RSS_-_Grey">
	<g id="Reload_-_Orange">
		<g id="Hand">
		</g>
	</g>
</g>
<g id="Info">
	<g id="Delete">
	</g>
	<g id="Check">
		<g id="Help">
			<g id="Add_Favorite">
				<g id="Favorite">
					<g id="Photo">
						<g id="Zoom_In">
						</g>
					</g>
				</g>
			</g>
		</g>
	</g>
</g>
<g>
	<path class="st1" d="M171.1,130.7c15,0,27-12.1,27-27.1s-12-27.1-27-27.1c-15,0-27.1,12.1-27.1,27.1S156.2,130.7,171.1,130.7z
		 M99,130.7c15,0,27-12.1,27-27.1s-12-27.1-27-27.1s-27.1,12.1-27.1,27.1S84,130.7,99,130.7z M99,148.8c-21,0-63.1,10.6-63.1,31.6
		v22.5h126.3v-22.5C162.1,159.3,120,148.8,99,148.8z M171.1,148.8c-2.6,0-5.6,0.2-8.7,0.5c10.5,7.6,17.8,17.8,17.8,31.1v22.5h54.1
		v-22.5C234.3,159.3,192.2,148.8,171.1,148.8z"/>
</g>
</svg>
