<?xml version="1.0" encoding="utf-8"?>
<!-- Generator: Adobe Illustrator 19.1.0, SVG Export Plug-In . SVG Version: 6.00 Build 0)  -->
<svg version="1.1" id="Layer_1" xmlns="http://www.w3.org/2000/svg" xmlns:xlink="http://www.w3.org/1999/xlink" x="0px" y="0px"
	 viewBox="0 0 283.5 283.5" style="enable-background:new 0 0 283.5 283.5;" xml:space="preserve">
<style type="text/css">
	.Half_x0020_Highlight_x0020_Blue{fill:url(#SVGID_1_);stroke:#FFFFFF;stroke-width:0.25;stroke-miterlimit:1;}
	.st0{fill:none;stroke:#000000;stroke-miterlimit:10;}
	.st1{fill:#FFFFFF;}
	.st2{fill:#060606;}
	.st3{opacity:0.3;fill:#060606;}
	.st4{fill:#30B454;}
	.st5{opacity:0.5;}
</style>
<linearGradient id="SVGID_1_" gradientUnits="userSpaceOnUse" x1="-1568.8995" y1="0" x2="-1568.8995" y2="-1">
	<stop  offset="0" style="stop-color:#2D409A"/>
	<stop  offset="0.618" style="stop-color:#2A3282"/>
	<stop  offset="0.6292" style="stop-color:#2A3592"/>
	<stop  offset="0.9831" style="stop-color:#0063A0"/>
</linearGradient>
<g>
	<path class="st1" d="M177.4,136.1L95.3,79.7c-1.2-0.8-2.5-1.2-3.8-1.2c-1.3,0-2.6,0.4-3.8,1.2c-2.3,1.6-3.8,4.6-3.8,7.8v112.7
		c0,3.2,1.4,6.2,3.8,7.8c1.2,0.8,2.5,1.2,3.8,1.2c1.3,0,2.6-0.4,3.8-1.2l82.1-56.3c2.3-1.6,3.8-4.6,3.8-7.8
		C181.2,140.6,179.7,137.7,177.4,136.1z"/>
	<path class="st1" d="M185.1,209.4L185.1,209.4c-7.9,0-14.4-6.5-14.4-14.4V88.4c0-7.9,6.5-14.4,14.4-14.4h0
		c7.9,0,14.4,6.5,14.4,14.4v106.7C199.5,203,193,209.4,185.1,209.4z"/>
</g>
<g id="RSS_-_Grey">
	<g id="Reload_-_Orange">
		<g id="Hand">
		</g>
	</g>
</g>
<g id="Info">
	<g id="Delete">
	</g>
	<g id="Check">
		<g id="Help">
			<g id="Add_Favorite">
				<g id="Favorite">
					<g id="Photo">
						<g id="Zoom_In">
						</g>
					</g>
				</g>
			</g>
		</g>
	</g>
</g>
</svg>
