<?xml version="1.0" encoding="utf-8"?>
<!-- Generator: Adobe Illustrator 19.1.0, SVG Export Plug-In . SVG Version: 6.00 Build 0)  -->
<svg version="1.1" id="Layer_1" xmlns="http://www.w3.org/2000/svg" xmlns:xlink="http://www.w3.org/1999/xlink" x="0px" y="0px"
	 viewBox="0 0 196 22.7" style="enable-background:new 0 0 196 22.7;" xml:space="preserve">
<style type="text/css">
	.st0{fill:url(#SVGID_1_);}
	.st1{fill:url(#SVGID_2_);}
	.st2{fill:none;stroke:#0D8CC6;stroke-width:1.0518;stroke-linecap:round;stroke-linejoin:round;stroke-miterlimit:10;}
	.st3{fill:none;stroke:#0D8CC6;stroke-width:0.6621;stroke-linecap:round;stroke-linejoin:round;stroke-miterlimit:10;}
	.st4{fill:none;stroke:#0D8CC6;stroke-width:1.3243;stroke-linecap:round;stroke-linejoin:round;stroke-miterlimit:10;}
	.st5{fill:#1A1A1A;}
	.st6{fill:#098AC5;}
	.st7{fill:#5E5F5E;}
	.st8{opacity:0.5;fill:#098AC5;}
	.st9{fill:#13181A;}
	.st10{opacity:0.5;fill:none;stroke:#929497;stroke-width:2.4167;stroke-miterlimit:10;}
	.st11{fill:none;stroke:#929497;stroke-width:2.4167;stroke-miterlimit:10;}
	.st12{fill:#929497;}
	.st13{fill:none;stroke:#929497;stroke-width:0.4801;stroke-miterlimit:10;}
	.st14{opacity:0.5;fill:#929497;}
	.st15{fill:#FFFFFF;}
	.st16{fill:#A7CE38;}
	.st17{fill:#BBBCBE;}
	.st18{font-family:'Helvetica-Light';}
	.st19{font-size:12px;}
</style>
<g>
	<g>
		<path class="st15" d="M32.8,12.4L32.8,12.4c0-0.4,0.3-0.7,0.7-0.7h129c0.4,0,0.7,0.3,0.7,0.7l0,0c0,0.4-0.3,0.7-0.7,0.7h-129
			C33.1,13.1,32.8,12.8,32.8,12.4z"/>
		<path class="st16" d="M32.8,12.4L32.8,12.4c0-0.4,0.3-0.7,0.7-0.7h98.8c0.4,0,0.7,0.3,0.7,0.7l0,0c0,0.4-0.3,0.7-0.7,0.7H33.5
			C33.1,13.1,32.8,12.8,32.8,12.4z"/>
		<circle class="st16" cx="136.2" cy="12.4" r="4.1"/>
	</g>
	<g>
		<text transform="matrix(1 0 0 1 166.0347 15.3939)" class="st17 st18 st19">3:29</text>
	</g>
	<g>
		<text transform="matrix(1 0 0 1 6.6133 15.3941)" class="st17 st18 st19">2:35</text>
	</g>
</g>
</svg>
