<?xml version="1.0" encoding="utf-8"?>
<!-- Generator: Adobe Illustrator 19.1.0, SVG Export Plug-In . SVG Version: 6.00 Build 0)  -->
<svg version="1.1" id="Layer_1" xmlns="http://www.w3.org/2000/svg" xmlns:xlink="http://www.w3.org/1999/xlink" x="0px" y="0px"
	 viewBox="0 0 35.3 22" style="enable-background:new 0 0 35.3 22;" xml:space="preserve">
<style type="text/css">
	.st0{fill:url(#SVGID_1_);}
	.st1{fill:url(#SVGID_2_);}
	.st2{fill:none;stroke:#0D8CC6;stroke-width:1.0518;stroke-linecap:round;stroke-linejoin:round;stroke-miterlimit:10;}
	.st3{fill:none;stroke:#0D8CC6;stroke-width:0.6621;stroke-linecap:round;stroke-linejoin:round;stroke-miterlimit:10;}
	.st4{fill:none;stroke:#0D8CC6;stroke-width:1.3243;stroke-linecap:round;stroke-linejoin:round;stroke-miterlimit:10;}
	.st5{fill:#1A1A1A;}
	.st6{fill:#098AC5;}
	.st7{fill:#5E5F5E;}
	.st8{opacity:0.5;fill:#098AC5;}
	.st9{fill:#13181A;}
	.st10{opacity:0.5;fill:none;stroke:#929497;stroke-width:2.4167;stroke-miterlimit:10;}
	.st11{fill:none;stroke:#929497;stroke-width:2.4167;stroke-miterlimit:10;}
	.st12{fill:#929497;}
	.st13{fill:none;stroke:#929497;stroke-width:0.4801;stroke-miterlimit:10;}
	.st14{opacity:0.5;fill:#929497;}
</style>
<g>
	<g>
		<rect x="21.1" y="5.2" class="st14" width="2.4" height="11.4"/>
		<g>
			<path class="st12" d="M23.5,16.8h-2.4c0-0.4,0-0.9,0-1.3c0.1-3.3,0.1-4.6-5-6.5l0.8-2.3c6.4,2.4,6.7,4.9,6.6,8.9
				C23.5,16,23.5,16.4,23.5,16.8z"/>
			<g>
				<polygon class="st12" points="17.9,5.9 13.2,6.8 16.4,10.5 				"/>
			</g>
		</g>
	</g>
	<path class="st13" d="M28,18.4H11.5c-0.5,0-1-0.4-1-1V4.6c0-0.5,0.4-1,1-1H28c0.5,0,1,0.4,1,1v12.8C29,17.9,28.5,18.4,28,18.4z"/>
	<path class="st12" d="M6.7,13.5c-0.1,0-0.2,0-0.2-0.1c-0.1-0.1-0.1-0.3,0-0.5l2-2l-2-2c-0.1-0.1-0.1-0.3,0-0.5
		c0.1-0.1,0.3-0.1,0.5,0l2.2,2.2c0.1,0.1,0.1,0.1,0.1,0.2c0,0.1,0,0.2-0.1,0.2l-2.2,2.2C6.8,13.5,6.7,13.5,6.7,13.5z"/>
</g>
</svg>
